<svg width="340" height="220" viewBox="0 0 340 220" fill="none" xmlns="http://www.w3.org/2000/svg">
<g clip-path="url(#clip0_0_2600)">
<path d="M0 10C0 4.47716 4.47715 0 10 0H330C335.523 0 340 4.47715 340 10V210C340 215.523 335.523 220 330 220H10C4.47716 220 0 215.523 0 210L0 10Z" fill="url(#paint0_linear_0_2600)"/>
<path d="M15 180.5H324.5" stroke="#979797" stroke-opacity="0.165167" stroke-width="0.5" stroke-dasharray="5 5"/>
<g clip-path="url(#clip1_0_2600)">
<path d="M61.2917 83.9183C61.3984 81.785 62.1451 80.1423 63.5317 78.9903C64.9397 77.817 66.7851 77.2303 69.0677 77.2303C70.6251 77.2303 71.9584 77.5076 73.0677 78.0623C74.1771 78.5956 75.0091 79.3316 75.5637 80.2703C76.1397 81.1876 76.4277 82.233 76.4277 83.4063C76.4277 84.7503 76.0757 85.8916 75.3717 86.8303C74.6891 87.7476 73.8677 88.3663 72.9077 88.6863V88.8143C74.1451 89.1983 75.1051 89.881 75.7877 90.8623C76.4917 91.8436 76.8437 93.1023 76.8437 94.6383C76.8437 95.9183 76.5451 97.0596 75.9477 98.0623C75.3717 99.065 74.5077 99.8543 73.3557 100.43C72.2251 100.985 70.8597 101.262 69.2597 101.262C66.8491 101.262 64.8864 100.654 63.3717 99.4383C61.8571 98.2223 61.0571 96.4303 60.9717 94.0623H65.3237C65.3664 95.1076 65.7184 95.9503 66.3797 96.5903C67.0624 97.209 67.9904 97.5183 69.1637 97.5183C70.2517 97.5183 71.0837 97.2196 71.6597 96.6223C72.2571 96.0036 72.5557 95.2143 72.5557 94.2543C72.5557 92.9743 72.1504 92.057 71.3397 91.5023C70.5291 90.9476 69.2704 90.6703 67.5637 90.6703H66.6357V86.9903H67.5637C70.5931 86.9903 72.1077 85.977 72.1077 83.9503C72.1077 83.033 71.8304 82.3183 71.2757 81.8063C70.7424 81.2943 69.9637 81.0383 68.9397 81.0383C67.9371 81.0383 67.1584 81.3156 66.6037 81.8703C66.0704 82.4036 65.7611 83.0863 65.6757 83.9183H61.2917ZM80.0266 81.9023V77.7743H87.7386V101.102H83.1306V81.9023H80.0266Z" fill="white"/>
<path d="M58.7419 114.157V120.8H57.8683V115.846L55.6603 120.8H55.0459L52.8283 115.837V120.8H51.9547V114.157H52.8955L55.3531 119.648L57.8107 114.157H58.7419ZM62.5179 120.886C62.0251 120.886 61.5771 120.774 61.1739 120.55C60.7771 120.326 60.4635 120.01 60.2331 119.6C60.0091 119.184 59.8971 118.704 59.8971 118.16C59.8971 117.622 60.0123 117.149 60.2427 116.739C60.4795 116.323 60.7995 116.006 61.2027 115.789C61.6059 115.565 62.0571 115.453 62.5563 115.453C63.0555 115.453 63.5067 115.565 63.9099 115.789C64.3131 116.006 64.6299 116.32 64.8603 116.73C65.0971 117.139 65.2155 117.616 65.2155 118.16C65.2155 118.704 65.0939 119.184 64.8507 119.6C64.6139 120.01 64.2907 120.326 63.8811 120.55C63.4715 120.774 63.0171 120.886 62.5179 120.886ZM62.5179 120.118C62.8315 120.118 63.1259 120.045 63.4011 119.898C63.6763 119.75 63.8971 119.53 64.0635 119.235C64.2363 118.941 64.3227 118.582 64.3227 118.16C64.3227 117.738 64.2395 117.379 64.0731 117.085C63.9067 116.79 63.6891 116.573 63.4203 116.432C63.1515 116.285 62.8603 116.211 62.5467 116.211C62.2267 116.211 61.9323 116.285 61.6635 116.432C61.4011 116.573 61.1899 116.79 61.0299 117.085C60.8699 117.379 60.7899 117.738 60.7899 118.16C60.7899 118.589 60.8667 118.95 61.0203 119.245C61.1803 119.539 61.3915 119.76 61.6539 119.907C61.9163 120.048 62.2043 120.118 62.5179 120.118ZM66.0377 118.15C66.0377 117.613 66.1465 117.142 66.3641 116.739C66.5817 116.33 66.8793 116.013 67.2569 115.789C67.6409 115.565 68.0697 115.453 68.5433 115.453C68.9529 115.453 69.3337 115.549 69.6857 115.741C70.0377 115.926 70.3065 116.173 70.4921 116.48V113.696H71.3753V120.8H70.4921V119.811C70.3193 120.125 70.0633 120.384 69.7241 120.589C69.3849 120.787 68.9881 120.886 68.5337 120.886C68.0665 120.886 67.6409 120.771 67.2569 120.541C66.8793 120.31 66.5817 119.987 66.3641 119.571C66.1465 119.155 66.0377 118.682 66.0377 118.15ZM70.4921 118.16C70.4921 117.763 70.4121 117.418 70.2521 117.123C70.0921 116.829 69.8745 116.605 69.5993 116.451C69.3305 116.291 69.0329 116.211 68.7065 116.211C68.3801 116.211 68.0825 116.288 67.8137 116.442C67.5449 116.595 67.3305 116.819 67.1705 117.114C67.0105 117.408 66.9305 117.754 66.9305 118.15C66.9305 118.554 67.0105 118.906 67.1705 119.206C67.3305 119.501 67.5449 119.728 67.8137 119.888C68.0825 120.042 68.3801 120.118 68.7065 120.118C69.0329 120.118 69.3305 120.042 69.5993 119.888C69.8745 119.728 70.0921 119.501 70.2521 119.206C70.4121 118.906 70.4921 118.557 70.4921 118.16ZM77.6516 117.968C77.6516 118.134 77.642 118.31 77.6228 118.496H73.418C73.45 119.014 73.626 119.421 73.946 119.715C74.2724 120.003 74.666 120.147 75.1268 120.147C75.5044 120.147 75.818 120.061 76.0676 119.888C76.3236 119.709 76.5028 119.472 76.6052 119.178H77.546C77.4052 119.683 77.1236 120.096 76.7012 120.416C76.2788 120.73 75.754 120.886 75.1268 120.886C74.6276 120.886 74.1796 120.774 73.7828 120.55C73.3924 120.326 73.0852 120.01 72.8612 119.6C72.6372 119.184 72.5252 118.704 72.5252 118.16C72.5252 117.616 72.634 117.139 72.8516 116.73C73.0692 116.32 73.3732 116.006 73.7636 115.789C74.1604 115.565 74.6148 115.453 75.1268 115.453C75.626 115.453 76.0676 115.562 76.4516 115.779C76.8356 115.997 77.13 116.298 77.3348 116.682C77.546 117.059 77.6516 117.488 77.6516 117.968ZM76.7492 117.786C76.7492 117.453 76.6756 117.168 76.5284 116.931C76.3812 116.688 76.1796 116.506 75.9236 116.384C75.674 116.256 75.3956 116.192 75.0884 116.192C74.6468 116.192 74.2692 116.333 73.9556 116.614C73.6484 116.896 73.4724 117.286 73.4276 117.786H76.7492ZM79.6783 116.394C79.8319 116.093 80.0495 115.859 80.3311 115.693C80.6191 115.526 80.9679 115.443 81.3775 115.443V116.346H81.1471C80.1679 116.346 79.6783 116.877 79.6783 117.939V120.8H78.8047V115.539H79.6783V116.394ZM82.0596 118.15C82.0596 117.613 82.1684 117.142 82.386 116.739C82.6036 116.33 82.9012 116.013 83.2788 115.789C83.6628 115.565 84.0884 115.453 84.5556 115.453C85.0164 115.453 85.4164 115.552 85.7556 115.75C86.0948 115.949 86.3476 116.198 86.514 116.499V115.539H87.3972V120.8H86.514V119.821C86.3412 120.128 86.082 120.384 85.7364 120.589C85.3972 120.787 85.0004 120.886 84.546 120.886C84.0788 120.886 83.6564 120.771 83.2788 120.541C82.9012 120.31 82.6036 119.987 82.386 119.571C82.1684 119.155 82.0596 118.682 82.0596 118.15ZM86.514 118.16C86.514 117.763 86.434 117.418 86.274 117.123C86.114 116.829 85.8964 116.605 85.6212 116.451C85.3524 116.291 85.0548 116.211 84.7284 116.211C84.402 116.211 84.1044 116.288 83.8356 116.442C83.5668 116.595 83.3524 116.819 83.1924 117.114C83.0324 117.408 82.9524 117.754 82.9524 118.15C82.9524 118.554 83.0324 118.906 83.1924 119.206C83.3524 119.501 83.5668 119.728 83.8356 119.888C84.1044 120.042 84.402 120.118 84.7284 120.118C85.0548 120.118 85.3524 120.042 85.6212 119.888C85.8964 119.728 86.114 119.501 86.274 119.206C86.434 118.906 86.514 118.557 86.514 118.16ZM89.9391 116.259V119.36C89.9391 119.616 89.9935 119.798 90.1023 119.907C90.2111 120.01 90.3999 120.061 90.6687 120.061H91.3119V120.8H90.5247C90.0383 120.8 89.6735 120.688 89.4303 120.464C89.1871 120.24 89.0655 119.872 89.0655 119.36V116.259H88.3839V115.539H89.0655V114.214H89.9391V115.539H91.3119V116.259H89.9391ZM97.1704 117.968C97.1704 118.134 97.1608 118.31 97.1416 118.496H92.9368C92.9688 119.014 93.1448 119.421 93.4648 119.715C93.7912 120.003 94.1848 120.147 94.6456 120.147C95.0232 120.147 95.3368 120.061 95.5864 119.888C95.8424 119.709 96.0216 119.472 96.124 119.178H97.0648C96.924 119.683 96.6424 120.096 96.22 120.416C95.7976 120.73 95.2728 120.886 94.6456 120.886C94.1464 120.886 93.6984 120.774 93.3016 120.55C92.9112 120.326 92.604 120.01 92.38 119.6C92.156 119.184 92.044 118.704 92.044 118.16C92.044 117.616 92.1528 117.139 92.3704 116.73C92.588 116.32 92.892 116.006 93.2824 115.789C93.6792 115.565 94.1336 115.453 94.6456 115.453C95.1448 115.453 95.5864 115.562 95.9704 115.779C96.3544 115.997 96.6488 116.298 96.8536 116.682C97.0648 117.059 97.1704 117.488 97.1704 117.968ZM96.268 117.786C96.268 117.453 96.1944 117.168 96.0472 116.931C95.9 116.688 95.6984 116.506 95.4424 116.384C95.1928 116.256 94.9144 116.192 94.6072 116.192C94.1656 116.192 93.788 116.333 93.4744 116.614C93.1672 116.896 92.9912 117.286 92.9464 117.786H96.268Z" fill="white"/>
<path opacity="0.3" d="M109.791 141.341C120.714 131.668 127.6 117.538 127.6 101.8C127.6 72.6394 103.961 49 74.8 49C45.6394 49 22 72.6394 22 101.8C22 117.786 29.1047 132.114 40.3289 141.796" stroke="#979797" stroke-width="6" stroke-linecap="round" stroke-linejoin="bevel"/>
<g filter="url(#filter0_f_0_2600)">
<path d="M98.3684 54.5392C91.274 50.9944 83.2698 49 74.7998 49" stroke="url(#paint1_radial_0_2600)" stroke-width="6" stroke-linecap="round" stroke-linejoin="bevel"/>
</g>
<path d="M98.3686 54.5392C91.2742 50.9944 83.27 49 74.8 49C45.6394 49 22 72.6394 22 101.8C22 117.786 29.1047 132.114 40.3289 141.796" stroke="url(#paint2_radial_0_2600)" stroke-width="6" stroke-linecap="round" stroke-linejoin="bevel"/>
<path opacity="0.5" d="M38.496 155.048C38.496 154.131 38.6453 153.416 38.944 152.904C39.2427 152.387 39.7653 152.128 40.512 152.128C41.2533 152.128 41.7733 152.387 42.072 152.904C42.3707 153.416 42.52 154.131 42.52 155.048C42.52 155.981 42.3707 156.707 42.072 157.224C41.7733 157.741 41.2533 158 40.512 158C39.7653 158 39.2427 157.741 38.944 157.224C38.6453 156.707 38.496 155.981 38.496 155.048ZM41.8 155.048C41.8 154.584 41.768 154.192 41.704 153.872C41.6453 153.547 41.52 153.285 41.328 153.088C41.1413 152.891 40.8693 152.792 40.512 152.792C40.1493 152.792 39.872 152.891 39.68 153.088C39.4933 153.285 39.368 153.547 39.304 153.872C39.2453 154.192 39.216 154.584 39.216 155.048C39.216 155.528 39.2453 155.931 39.304 156.256C39.368 156.581 39.4933 156.843 39.68 157.04C39.872 157.237 40.1493 157.336 40.512 157.336C40.8693 157.336 41.1413 157.237 41.328 157.04C41.52 156.843 41.6453 156.581 41.704 156.256C41.768 155.931 41.8 155.528 41.8 155.048Z" fill="#9B9EAD"/>
<path opacity="0.5" d="M104.602 152.848H101.794V154.672C101.917 154.501 102.098 154.363 102.338 154.256C102.578 154.144 102.837 154.088 103.114 154.088C103.557 154.088 103.917 154.181 104.194 154.368C104.472 154.549 104.669 154.787 104.786 155.08C104.909 155.368 104.97 155.675 104.97 156C104.97 156.384 104.898 156.728 104.754 157.032C104.61 157.336 104.389 157.576 104.09 157.752C103.797 157.928 103.432 158.016 102.994 158.016C102.434 158.016 101.981 157.872 101.634 157.584C101.288 157.296 101.077 156.912 101.002 156.432H101.714C101.784 156.736 101.93 156.973 102.154 157.144C102.378 157.315 102.661 157.4 103.002 157.4C103.424 157.4 103.741 157.275 103.954 157.024C104.168 156.768 104.274 156.432 104.274 156.016C104.274 155.6 104.168 155.28 103.954 155.056C103.741 154.827 103.426 154.712 103.01 154.712C102.728 154.712 102.48 154.781 102.266 154.92C102.058 155.053 101.906 155.237 101.81 155.472H101.122V152.208H104.602V152.848ZM105.984 155.048C105.984 154.131 106.134 153.416 106.432 152.904C106.731 152.387 107.254 152.128 108 152.128C108.742 152.128 109.262 152.387 109.56 152.904C109.859 153.416 110.008 154.131 110.008 155.048C110.008 155.981 109.859 156.707 109.56 157.224C109.262 157.741 108.742 158 108 158C107.254 158 106.731 157.741 106.432 157.224C106.134 156.707 105.984 155.981 105.984 155.048ZM109.288 155.048C109.288 154.584 109.256 154.192 109.192 153.872C109.134 153.547 109.008 153.285 108.816 153.088C108.63 152.891 108.358 152.792 108 152.792C107.638 152.792 107.36 152.891 107.168 153.088C106.982 153.285 106.856 153.547 106.792 153.872C106.734 154.192 106.704 154.584 106.704 155.048C106.704 155.528 106.734 155.931 106.792 156.256C106.856 156.581 106.982 156.843 107.168 157.04C107.36 157.237 107.638 157.336 108 157.336C108.358 157.336 108.63 157.237 108.816 157.04C109.008 156.843 109.134 156.581 109.192 156.256C109.256 155.931 109.288 155.528 109.288 155.048ZM111.054 155.048C111.054 154.131 111.204 153.416 111.502 152.904C111.801 152.387 112.324 152.128 113.07 152.128C113.812 152.128 114.332 152.387 114.63 152.904C114.929 153.416 115.078 154.131 115.078 155.048C115.078 155.981 114.929 156.707 114.63 157.224C114.332 157.741 113.812 158 113.07 158C112.324 158 111.801 157.741 111.502 157.224C111.204 156.707 111.054 155.981 111.054 155.048ZM114.358 155.048C114.358 154.584 114.326 154.192 114.262 153.872C114.204 153.547 114.078 153.285 113.886 153.088C113.7 152.891 113.428 152.792 113.07 152.792C112.708 152.792 112.43 152.891 112.238 153.088C112.052 153.285 111.926 153.547 111.862 153.872C111.804 154.192 111.774 154.584 111.774 155.048C111.774 155.528 111.804 155.931 111.862 156.256C111.926 156.581 112.052 156.843 112.238 157.04C112.43 157.237 112.708 157.336 113.07 157.336C113.428 157.336 113.7 157.237 113.886 157.04C114.078 156.843 114.204 156.581 114.262 156.256C114.326 155.931 114.358 155.528 114.358 155.048Z" fill="#9B9EAD"/>
</g>
<path d="M28.958 23.138H25.066L24.422 25H22.364L25.878 15.214H28.16L31.674 25H29.602L28.958 23.138ZM28.426 21.57L27.012 17.482L25.598 21.57H28.426ZM34.0632 16.32C33.7178 16.32 33.4285 16.2127 33.1952 15.998C32.9712 15.774 32.8592 15.4987 32.8592 15.172C32.8592 14.8453 32.9712 14.5747 33.1952 14.36C33.4285 14.136 33.7178 14.024 34.0632 14.024C34.4085 14.024 34.6932 14.136 34.9172 14.36C35.1505 14.5747 35.2672 14.8453 35.2672 15.172C35.2672 15.4987 35.1505 15.774 34.9172 15.998C34.6932 16.2127 34.4085 16.32 34.0632 16.32ZM35.0292 17.244V25H33.0692V17.244H35.0292ZM39.0073 18.448C39.2593 18.0373 39.586 17.7153 39.9873 17.482C40.398 17.2487 40.8646 17.132 41.3873 17.132V19.19H40.8693C40.2533 19.19 39.7866 19.3347 39.4693 19.624C39.1613 19.9133 39.0073 20.4173 39.0073 21.136V25H37.0473V17.244H39.0073V18.448ZM53.4867 26.722L52.0027 24.944C51.5921 25.0467 51.1721 25.098 50.7427 25.098C49.8281 25.098 48.9881 24.8833 48.2227 24.454C47.4574 24.0247 46.8507 23.432 46.4027 22.676C45.9547 21.9107 45.7307 21.0473 45.7307 20.086C45.7307 19.134 45.9547 18.28 46.4027 17.524C46.8507 16.7587 47.4574 16.1613 48.2227 15.732C48.9881 15.3027 49.8281 15.088 50.7427 15.088C51.6667 15.088 52.5067 15.3027 53.2627 15.732C54.0281 16.1613 54.6301 16.7587 55.0687 17.524C55.5167 18.28 55.7407 19.134 55.7407 20.086C55.7407 20.954 55.5541 21.7473 55.1807 22.466C54.8167 23.1753 54.3174 23.754 53.6827 24.202L55.9227 26.722H53.4867ZM47.7467 20.086C47.7467 20.7393 47.8727 21.3133 48.1247 21.808C48.3767 22.3027 48.7267 22.6853 49.1747 22.956C49.6321 23.2173 50.1547 23.348 50.7427 23.348C51.3307 23.348 51.8487 23.2173 52.2967 22.956C52.7447 22.6853 53.0947 22.3027 53.3467 21.808C53.5987 21.3133 53.7247 20.7393 53.7247 20.086C53.7247 19.4327 53.5987 18.8633 53.3467 18.378C53.0947 17.8833 52.7447 17.5053 52.2967 17.244C51.8487 16.9827 51.3307 16.852 50.7427 16.852C50.1547 16.852 49.6321 16.9827 49.1747 17.244C48.7267 17.5053 48.3767 17.8833 48.1247 18.378C47.8727 18.8633 47.7467 19.4327 47.7467 20.086ZM64.6299 17.244V25H62.6559V24.02C62.4039 24.356 62.0726 24.622 61.6619 24.818C61.2606 25.0047 60.8219 25.098 60.3459 25.098C59.7393 25.098 59.2026 24.972 58.7359 24.72C58.2693 24.4587 57.9006 24.0807 57.6299 23.586C57.3686 23.082 57.2379 22.4847 57.2379 21.794V17.244H59.1979V21.514C59.1979 22.13 59.3519 22.606 59.6599 22.942C59.9679 23.2687 60.3879 23.432 60.9199 23.432C61.4613 23.432 61.8859 23.2687 62.1939 22.942C62.5019 22.606 62.6559 22.13 62.6559 21.514V17.244H64.6299ZM66.1415 21.094C66.1415 20.31 66.2955 19.6147 66.6035 19.008C66.9208 18.4013 67.3455 17.9347 67.8775 17.608C68.4188 17.2813 69.0208 17.118 69.6835 17.118C70.2621 17.118 70.7661 17.2347 71.1955 17.468C71.6341 17.7013 71.9841 17.9953 72.2455 18.35V17.244H74.2195V25H72.2455V23.866C71.9935 24.23 71.6435 24.5333 71.1955 24.776C70.7568 25.0093 70.2481 25.126 69.6695 25.126C69.0161 25.126 68.4188 24.958 67.8775 24.622C67.3455 24.286 66.9208 23.8147 66.6035 23.208C66.2955 22.592 66.1415 21.8873 66.1415 21.094ZM72.2455 21.122C72.2455 20.646 72.1521 20.24 71.9655 19.904C71.7788 19.5587 71.5268 19.2973 71.2095 19.12C70.8921 18.9333 70.5515 18.84 70.1875 18.84C69.8235 18.84 69.4875 18.9287 69.1795 19.106C68.8715 19.2833 68.6195 19.5447 68.4235 19.89C68.2368 20.226 68.1435 20.6273 68.1435 21.094C68.1435 21.5607 68.2368 21.9713 68.4235 22.326C68.6195 22.6713 68.8715 22.9373 69.1795 23.124C69.4968 23.3107 69.8328 23.404 70.1875 23.404C70.5515 23.404 70.8921 23.3153 71.2095 23.138C71.5268 22.9513 71.7788 22.69 71.9655 22.354C72.1521 22.0087 72.2455 21.598 72.2455 21.122ZM78.1754 14.64V25H76.2154V14.64H78.1754ZM81.1876 16.32C80.8422 16.32 80.5529 16.2127 80.3196 15.998C80.0956 15.774 79.9836 15.4987 79.9836 15.172C79.9836 14.8453 80.0956 14.5747 80.3196 14.36C80.5529 14.136 80.8422 14.024 81.1876 14.024C81.5329 14.024 81.8176 14.136 82.0416 14.36C82.2749 14.5747 82.3916 14.8453 82.3916 15.172C82.3916 15.4987 82.2749 15.774 82.0416 15.998C81.8176 16.2127 81.5329 16.32 81.1876 16.32ZM82.1536 17.244V25H80.1936V17.244H82.1536ZM86.4537 18.854V22.606C86.4537 22.8673 86.5144 23.0587 86.6357 23.18C86.7664 23.292 86.981 23.348 87.2797 23.348H88.1897V25H86.9577C85.3057 25 84.4797 24.1973 84.4797 22.592V18.854H83.5557V17.244H84.4797V15.326H86.4537V17.244H88.1897V18.854H86.4537ZM97.1011 17.244L92.2991 28.668H90.2131L91.8931 24.804L88.7851 17.244H90.9831L92.9851 22.662L95.0151 17.244H97.1011Z" fill="white"/>
<path d="M19.47 195.01V199.41C19.47 200.103 19.6333 200.617 19.96 200.95C20.2933 201.283 20.7467 201.45 21.32 201.45C21.8933 201.45 22.34 201.287 22.66 200.96C22.9867 200.627 23.15 200.11 23.15 199.41V195.01H23.85V199.4C23.85 200.287 23.6133 200.953 23.14 201.4C22.6733 201.847 22.0633 202.07 21.31 202.07C20.5567 202.07 19.9433 201.847 19.47 201.4C19.0033 200.953 18.77 200.287 18.77 199.4V195.01H19.47ZM27.5897 202.07C27.1297 202.07 26.723 201.99 26.3697 201.83C26.023 201.67 25.7497 201.447 25.5497 201.16C25.3497 200.873 25.243 200.553 25.2297 200.2H25.9697C26.003 200.54 26.153 200.84 26.4197 201.1C26.6863 201.353 27.0763 201.48 27.5897 201.48C28.063 201.48 28.4363 201.36 28.7097 201.12C28.9897 200.873 29.1297 200.563 29.1297 200.19C29.1297 199.89 29.053 199.65 28.8997 199.47C28.7463 199.283 28.5563 199.147 28.3297 199.06C28.103 198.967 27.7897 198.867 27.3897 198.76C26.923 198.633 26.553 198.51 26.2797 198.39C26.0063 198.27 25.773 198.083 25.5797 197.83C25.3863 197.577 25.2897 197.233 25.2897 196.8C25.2897 196.44 25.383 196.12 25.5697 195.84C25.7563 195.553 26.0197 195.33 26.3597 195.17C26.6997 195.01 27.0897 194.93 27.5297 194.93C28.1763 194.93 28.6963 195.09 29.0897 195.41C29.4897 195.723 29.7197 196.13 29.7797 196.63H29.0197C28.973 196.343 28.8163 196.09 28.5497 195.87C28.283 195.643 27.923 195.53 27.4697 195.53C27.0497 195.53 26.6997 195.643 26.4197 195.87C26.1397 196.09 25.9997 196.393 25.9997 196.78C25.9997 197.073 26.0763 197.31 26.2297 197.49C26.383 197.67 26.573 197.807 26.7997 197.9C27.033 197.993 27.3463 198.093 27.7397 198.2C28.193 198.327 28.5597 198.453 28.8397 198.58C29.1197 198.7 29.3563 198.887 29.5497 199.14C29.743 199.393 29.8397 199.733 29.8397 200.16C29.8397 200.487 29.753 200.797 29.5797 201.09C29.4063 201.383 29.1497 201.62 28.8097 201.8C28.4697 201.98 28.063 202.07 27.5897 202.07ZM34.7531 195.58V198.19H37.4031V198.77H34.7531V201.42H37.7031V202H34.0531V195H37.7031V195.58H34.7531ZM43.6108 197.02C43.6108 197.62 43.4141 198.103 43.0208 198.47C42.6274 198.837 42.0374 199.02 41.2508 199.02H39.8408V202H39.1408V195.01H41.2508C42.0308 195.01 42.6174 195.193 43.0108 195.56C43.4108 195.927 43.6108 196.413 43.6108 197.02ZM41.2508 198.42C42.3441 198.42 42.8908 197.953 42.8908 197.02C42.8908 196.553 42.7608 196.2 42.5008 195.96C42.2408 195.72 41.8241 195.6 41.2508 195.6H39.8408V198.42H41.2508ZM48.8936 200.34H45.7136L45.1036 202H44.3636L46.9136 195.1H47.7036L50.2436 202H49.5036L48.8936 200.34ZM48.6836 199.76L47.3036 195.98L45.9236 199.76H48.6836ZM58.2779 200.34H55.0979L54.4879 202H53.7479L56.2979 195.1H57.0879L59.6279 202H58.8879L58.2779 200.34ZM58.0679 199.76L56.6879 195.98L55.3079 199.76H58.0679ZM66.5796 203.37L65.0196 201.92C64.6796 202.02 64.323 202.07 63.9496 202.07C63.303 202.07 62.7163 201.92 62.1896 201.62C61.663 201.313 61.2463 200.89 60.9396 200.35C60.6396 199.803 60.4896 199.187 60.4896 198.5C60.4896 197.813 60.6396 197.2 60.9396 196.66C61.2463 196.113 61.663 195.69 62.1896 195.39C62.7163 195.083 63.303 194.93 63.9496 194.93C64.603 194.93 65.193 195.083 65.7196 195.39C66.2463 195.69 66.6596 196.113 66.9596 196.66C67.2596 197.2 67.4096 197.813 67.4096 198.5C67.4096 199.207 67.253 199.837 66.9396 200.39C66.6263 200.937 66.1963 201.357 65.6496 201.65L67.5196 203.37H66.5796ZM61.2096 198.5C61.2096 199.093 61.3296 199.617 61.5696 200.07C61.8096 200.517 62.1363 200.86 62.5496 201.1C62.963 201.34 63.4296 201.46 63.9496 201.46C64.4696 201.46 64.9363 201.34 65.3496 201.1C65.763 200.86 66.0896 200.517 66.3296 200.07C66.5696 199.617 66.6896 199.093 66.6896 198.5C66.6896 197.907 66.5696 197.387 66.3296 196.94C66.0896 196.493 65.763 196.15 65.3496 195.91C64.9363 195.67 64.4696 195.55 63.9496 195.55C63.4296 195.55 62.963 195.67 62.5496 195.91C62.1363 196.15 61.8096 196.493 61.5696 196.94C61.3296 197.387 61.2096 197.907 61.2096 198.5ZM69.4586 195.01V202H68.7586V195.01H69.4586Z" fill="#9B9EAD"/>
<path d="M73.2132 200.58V199.48L76.4832 194.8H78.1132V199.36H78.9932V200.58H78.1132V202H76.7132V200.58H73.2132ZM76.8032 196.3L74.7532 199.36H76.8032V196.3ZM81.5629 199.95C81.6162 200.243 81.7362 200.47 81.9229 200.63C82.1162 200.783 82.3729 200.86 82.6929 200.86C83.1062 200.86 83.4062 200.69 83.5929 200.35C83.7796 200.003 83.8729 199.423 83.8729 198.61C83.7196 198.823 83.5029 198.99 83.2229 199.11C82.9496 199.23 82.6529 199.29 82.3329 199.29C81.9062 199.29 81.5196 199.203 81.1729 199.03C80.8329 198.85 80.5629 198.587 80.3629 198.24C80.1629 197.887 80.0629 197.46 80.0629 196.96C80.0629 196.22 80.2829 195.633 80.7229 195.2C81.1629 194.76 81.7629 194.54 82.5229 194.54C83.4696 194.54 84.1362 194.843 84.5229 195.45C84.9162 196.057 85.1129 196.97 85.1129 198.19C85.1129 199.057 85.0362 199.767 84.8829 200.32C84.7362 200.873 84.4796 201.293 84.1129 201.58C83.7529 201.867 83.2596 202.01 82.6329 202.01C82.1396 202.01 81.7196 201.917 81.3729 201.73C81.0262 201.537 80.7596 201.287 80.5729 200.98C80.3929 200.667 80.2896 200.323 80.2629 199.95H81.5629ZM82.6229 198.15C82.9696 198.15 83.2429 198.043 83.4429 197.83C83.6429 197.617 83.7429 197.33 83.7429 196.97C83.7429 196.577 83.6362 196.273 83.4229 196.06C83.2162 195.84 82.9329 195.73 82.5729 195.73C82.2129 195.73 81.9262 195.843 81.7129 196.07C81.5062 196.29 81.4029 196.583 81.4029 196.95C81.4029 197.303 81.5029 197.593 81.7029 197.82C81.9096 198.04 82.2162 198.15 82.6229 198.15ZM90.171 192.53L87.471 203.81H86.101L88.801 192.53H90.171ZM96.0826 195.92H92.8426V197.63C92.9826 197.457 93.1826 197.317 93.4426 197.21C93.7026 197.097 93.9793 197.04 94.2726 197.04C94.8059 197.04 95.2426 197.157 95.5826 197.39C95.9226 197.623 96.1693 197.923 96.3226 198.29C96.4759 198.65 96.5526 199.037 96.5526 199.45C96.5526 200.217 96.3326 200.833 95.8926 201.3C95.4593 201.767 94.8393 202 94.0326 202C93.2726 202 92.6659 201.81 92.2126 201.43C91.7593 201.05 91.5026 200.553 91.4426 199.94H92.8026C92.8626 200.207 92.9959 200.42 93.2026 200.58C93.4159 200.74 93.6859 200.82 94.0126 200.82C94.4059 200.82 94.7026 200.697 94.9026 200.45C95.1026 200.203 95.2026 199.877 95.2026 199.47C95.2026 199.057 95.0993 198.743 94.8926 198.53C94.6926 198.31 94.3959 198.2 94.0026 198.2C93.7226 198.2 93.4893 198.27 93.3026 198.41C93.1159 198.55 92.9826 198.737 92.9026 198.97H91.5626V194.69H96.0826V195.92ZM97.6765 198.26C97.6765 197.107 97.8832 196.203 98.2965 195.55C98.7165 194.897 99.4098 194.57 100.376 194.57C101.343 194.57 102.033 194.897 102.446 195.55C102.866 196.203 103.076 197.107 103.076 198.26C103.076 199.42 102.866 200.33 102.446 200.99C102.033 201.65 101.343 201.98 100.376 201.98C99.4098 201.98 98.7165 201.65 98.2965 200.99C97.8832 200.33 97.6765 199.42 97.6765 198.26ZM101.696 198.26C101.696 197.767 101.663 197.353 101.596 197.02C101.536 196.68 101.41 196.403 101.216 196.19C101.03 195.977 100.75 195.87 100.376 195.87C100.003 195.87 99.7198 195.977 99.5265 196.19C99.3398 196.403 99.2132 196.68 99.1465 197.02C99.0865 197.353 99.0565 197.767 99.0565 198.26C99.0565 198.767 99.0865 199.193 99.1465 199.54C99.2065 199.88 99.3332 200.157 99.5265 200.37C99.7198 200.577 100.003 200.68 100.376 200.68C100.75 200.68 101.033 200.577 101.226 200.37C101.42 200.157 101.546 199.88 101.606 199.54C101.666 199.193 101.696 198.767 101.696 198.26ZM104.2 198.26C104.2 197.107 104.406 196.203 104.82 195.55C105.24 194.897 105.933 194.57 106.9 194.57C107.866 194.57 108.556 194.897 108.97 195.55C109.39 196.203 109.6 197.107 109.6 198.26C109.6 199.42 109.39 200.33 108.97 200.99C108.556 201.65 107.866 201.98 106.9 201.98C105.933 201.98 105.24 201.65 104.82 200.99C104.406 200.33 104.2 199.42 104.2 198.26ZM108.22 198.26C108.22 197.767 108.186 197.353 108.12 197.02C108.06 196.68 107.933 196.403 107.74 196.19C107.553 195.977 107.273 195.87 106.9 195.87C106.526 195.87 106.243 195.977 106.05 196.19C105.863 196.403 105.736 196.68 105.67 197.02C105.61 197.353 105.58 197.767 105.58 198.26C105.58 198.767 105.61 199.193 105.67 199.54C105.73 199.88 105.856 200.157 106.05 200.37C106.243 200.577 106.526 200.68 106.9 200.68C107.273 200.68 107.556 200.577 107.75 200.37C107.943 200.157 108.07 199.88 108.13 199.54C108.19 199.193 108.22 198.767 108.22 198.26Z" fill="white"/>
<path d="M194.87 195.01C195.643 195.01 196.307 195.15 196.86 195.43C197.413 195.71 197.837 196.113 198.13 196.64C198.423 197.167 198.57 197.793 198.57 198.52C198.57 199.24 198.423 199.863 198.13 200.39C197.837 200.91 197.413 201.31 196.86 201.59C196.307 201.863 195.643 202 194.87 202H192.8V195.01H194.87ZM194.87 201.42C195.843 201.42 196.583 201.167 197.09 200.66C197.603 200.147 197.86 199.433 197.86 198.52C197.86 197.6 197.603 196.883 197.09 196.37C196.583 195.85 195.843 195.59 194.87 195.59H193.5V201.42H194.87ZM202.309 202.08C201.796 202.08 201.332 201.967 200.919 201.74C200.512 201.507 200.189 201.18 199.949 200.76C199.716 200.333 199.599 199.837 199.599 199.27C199.599 198.703 199.719 198.21 199.959 197.79C200.199 197.363 200.526 197.037 200.939 196.81C201.352 196.577 201.816 196.46 202.329 196.46C202.842 196.46 203.306 196.577 203.719 196.81C204.139 197.037 204.466 197.363 204.699 197.79C204.939 198.21 205.059 198.703 205.059 199.27C205.059 199.83 204.939 200.323 204.699 200.75C204.459 201.177 204.129 201.507 203.709 201.74C203.289 201.967 202.822 202.08 202.309 202.08ZM202.309 201.47C202.669 201.47 203.002 201.39 203.309 201.23C203.616 201.063 203.862 200.817 204.049 200.49C204.242 200.157 204.339 199.75 204.339 199.27C204.339 198.79 204.246 198.387 204.059 198.06C203.872 197.727 203.626 197.48 203.319 197.32C203.012 197.153 202.679 197.07 202.319 197.07C201.959 197.07 201.626 197.153 201.319 197.32C201.012 197.48 200.766 197.727 200.579 198.06C200.399 198.387 200.309 198.79 200.309 199.27C200.309 199.75 200.399 200.157 200.579 200.49C200.766 200.817 201.009 201.063 201.309 201.23C201.616 201.39 201.949 201.47 202.309 201.47ZM212.893 196.44C213.533 196.44 214.053 196.643 214.453 197.05C214.86 197.45 215.063 198.033 215.063 198.8V202H214.373V198.88C214.373 198.287 214.23 197.833 213.943 197.52C213.657 197.207 213.267 197.05 212.773 197.05C212.26 197.05 211.85 197.22 211.543 197.56C211.237 197.9 211.083 198.393 211.083 199.04V202H210.393V198.88C210.393 198.287 210.25 197.833 209.963 197.52C209.677 197.207 209.283 197.05 208.783 197.05C208.27 197.05 207.86 197.22 207.553 197.56C207.247 197.9 207.093 198.393 207.093 199.04V202H206.393V196.54H207.093V197.48C207.267 197.14 207.513 196.883 207.833 196.71C208.153 196.53 208.51 196.44 208.903 196.44C209.377 196.44 209.79 196.553 210.143 196.78C210.503 197.007 210.763 197.34 210.923 197.78C211.07 197.347 211.32 197.017 211.673 196.79C212.033 196.557 212.44 196.44 212.893 196.44ZM217.026 195.51C216.886 195.51 216.766 195.46 216.666 195.36C216.566 195.26 216.516 195.137 216.516 194.99C216.516 194.843 216.566 194.723 216.666 194.63C216.766 194.53 216.886 194.48 217.026 194.48C217.166 194.48 217.286 194.53 217.386 194.63C217.486 194.723 217.536 194.843 217.536 194.99C217.536 195.137 217.486 195.26 217.386 195.36C217.286 195.46 217.166 195.51 217.026 195.51ZM217.376 196.54V202H216.676V196.54H217.376ZM221.58 196.44C222.233 196.44 222.766 196.643 223.18 197.05C223.593 197.45 223.8 198.033 223.8 198.8V202H223.11V198.88C223.11 198.287 222.96 197.833 222.66 197.52C222.366 197.207 221.963 197.05 221.45 197.05C220.923 197.05 220.503 197.217 220.19 197.55C219.876 197.883 219.72 198.373 219.72 199.02V202H219.02V196.54H219.72V197.47C219.893 197.137 220.143 196.883 220.47 196.71C220.796 196.53 221.166 196.44 221.58 196.44ZM225.086 199.26C225.086 198.7 225.196 198.21 225.416 197.79C225.643 197.363 225.953 197.037 226.346 196.81C226.746 196.577 227.196 196.46 227.696 196.46C228.216 196.46 228.663 196.58 229.036 196.82C229.416 197.06 229.689 197.367 229.856 197.74V196.54H230.556V202H229.856V200.79C229.683 201.163 229.406 201.473 229.026 201.72C228.653 201.96 228.206 202.08 227.686 202.08C227.193 202.08 226.746 201.963 226.346 201.73C225.953 201.497 225.643 201.167 225.416 200.74C225.196 200.313 225.086 199.82 225.086 199.26ZM229.856 199.27C229.856 198.83 229.766 198.443 229.586 198.11C229.406 197.777 229.159 197.52 228.846 197.34C228.539 197.16 228.199 197.07 227.826 197.07C227.439 197.07 227.093 197.157 226.786 197.33C226.479 197.503 226.236 197.757 226.056 198.09C225.883 198.417 225.796 198.807 225.796 199.26C225.796 199.707 225.883 200.1 226.056 200.44C226.236 200.773 226.479 201.03 226.786 201.21C227.093 201.383 227.439 201.47 227.826 201.47C228.199 201.47 228.539 201.38 228.846 201.2C229.159 201.02 229.406 200.763 229.586 200.43C229.766 200.097 229.856 199.71 229.856 199.27ZM234.772 196.44C235.426 196.44 235.959 196.643 236.372 197.05C236.786 197.45 236.992 198.033 236.992 198.8V202H236.302V198.88C236.302 198.287 236.152 197.833 235.852 197.52C235.559 197.207 235.156 197.05 234.642 197.05C234.116 197.05 233.696 197.217 233.382 197.55C233.069 197.883 232.912 198.373 232.912 199.02V202H232.212V196.54H232.912V197.47C233.086 197.137 233.336 196.883 233.662 196.71C233.989 196.53 234.359 196.44 234.772 196.44ZM239.509 197.13V200.52C239.509 200.853 239.572 201.083 239.699 201.21C239.826 201.337 240.049 201.4 240.369 201.4H241.009V202H240.259C239.766 202 239.399 201.887 239.159 201.66C238.919 201.427 238.799 201.047 238.799 200.52V197.13H238.039V196.54H238.799V195.17H239.509V196.54H241.009V197.13H239.509ZM245.714 197.74C245.888 197.373 246.161 197.07 246.534 196.83C246.914 196.583 247.364 196.46 247.884 196.46C248.378 196.46 248.821 196.577 249.214 196.81C249.614 197.037 249.924 197.363 250.144 197.79C250.371 198.21 250.484 198.7 250.484 199.26C250.484 199.82 250.371 200.313 250.144 200.74C249.924 201.167 249.614 201.497 249.214 201.73C248.821 201.963 248.378 202.08 247.884 202.08C247.371 202.08 246.924 201.96 246.544 201.72C246.164 201.473 245.888 201.167 245.714 200.8V204.58H245.024V196.54H245.714V197.74ZM249.774 199.26C249.774 198.807 249.684 198.417 249.504 198.09C249.331 197.757 249.091 197.503 248.784 197.33C248.478 197.157 248.131 197.07 247.744 197.07C247.371 197.07 247.028 197.16 246.714 197.34C246.408 197.52 246.164 197.777 245.984 198.11C245.804 198.443 245.714 198.83 245.714 199.27C245.714 199.71 245.804 200.097 245.984 200.43C246.164 200.763 246.408 201.02 246.714 201.2C247.028 201.38 247.371 201.47 247.744 201.47C248.131 201.47 248.478 201.383 248.784 201.21C249.091 201.03 249.331 200.773 249.504 200.44C249.684 200.1 249.774 199.707 249.774 199.26ZM254.221 202.08C253.707 202.08 253.244 201.967 252.831 201.74C252.424 201.507 252.101 201.18 251.861 200.76C251.627 200.333 251.511 199.837 251.511 199.27C251.511 198.703 251.631 198.21 251.871 197.79C252.111 197.363 252.437 197.037 252.851 196.81C253.264 196.577 253.727 196.46 254.241 196.46C254.754 196.46 255.217 196.577 255.631 196.81C256.051 197.037 256.377 197.363 256.611 197.79C256.851 198.21 256.971 198.703 256.971 199.27C256.971 199.83 256.851 200.323 256.611 200.75C256.371 201.177 256.041 201.507 255.621 201.74C255.201 201.967 254.734 202.08 254.221 202.08ZM254.221 201.47C254.581 201.47 254.914 201.39 255.221 201.23C255.527 201.063 255.774 200.817 255.961 200.49C256.154 200.157 256.251 199.75 256.251 199.27C256.251 198.79 256.157 198.387 255.971 198.06C255.784 197.727 255.537 197.48 255.231 197.32C254.924 197.153 254.591 197.07 254.231 197.07C253.871 197.07 253.537 197.153 253.231 197.32C252.924 197.48 252.677 197.727 252.491 198.06C252.311 198.387 252.221 198.79 252.221 199.27C252.221 199.75 252.311 200.157 252.491 200.49C252.677 200.817 252.921 201.063 253.221 201.23C253.527 201.39 253.861 201.47 254.221 201.47ZM259.005 194.6V202H258.305V194.6H259.005ZM261.348 194.6V202H260.648V194.6H261.348ZM267.722 196.54V202H267.022V201.04C266.862 201.38 266.615 201.64 266.282 201.82C265.949 202 265.575 202.09 265.162 202.09C264.509 202.09 263.975 201.89 263.562 201.49C263.149 201.083 262.942 200.497 262.942 199.73V196.54H263.632V199.65C263.632 200.243 263.779 200.697 264.072 201.01C264.372 201.323 264.779 201.48 265.292 201.48C265.819 201.48 266.239 201.313 266.552 200.98C266.865 200.647 267.022 200.157 267.022 199.51V196.54H267.722ZM270.288 197.13V200.52C270.288 200.853 270.352 201.083 270.478 201.21C270.605 201.337 270.828 201.4 271.148 201.4H271.788V202H271.038C270.545 202 270.178 201.887 269.938 201.66C269.698 201.427 269.578 201.047 269.578 200.52V197.13H268.818V196.54H269.578V195.17H270.288V196.54H271.788V197.13H270.288ZM272.681 199.26C272.681 198.7 272.791 198.21 273.011 197.79C273.238 197.363 273.548 197.037 273.941 196.81C274.341 196.577 274.791 196.46 275.291 196.46C275.811 196.46 276.258 196.58 276.631 196.82C277.011 197.06 277.285 197.367 277.451 197.74V196.54H278.151V202H277.451V200.79C277.278 201.163 277.001 201.473 276.621 201.72C276.248 201.96 275.801 202.08 275.281 202.08C274.788 202.08 274.341 201.963 273.941 201.73C273.548 201.497 273.238 201.167 273.011 200.74C272.791 200.313 272.681 199.82 272.681 199.26ZM277.451 199.27C277.451 198.83 277.361 198.443 277.181 198.11C277.001 197.777 276.755 197.52 276.441 197.34C276.135 197.16 275.795 197.07 275.421 197.07C275.035 197.07 274.688 197.157 274.381 197.33C274.075 197.503 273.831 197.757 273.651 198.09C273.478 198.417 273.391 198.807 273.391 199.26C273.391 199.707 273.478 200.1 273.651 200.44C273.831 200.773 274.075 201.03 274.381 201.21C274.688 201.383 275.035 201.47 275.421 201.47C275.795 201.47 276.135 201.38 276.441 201.2C276.755 201.02 277.001 200.763 277.181 200.43C277.361 200.097 277.451 199.71 277.451 199.27ZM282.368 196.44C283.021 196.44 283.554 196.643 283.968 197.05C284.381 197.45 284.588 198.033 284.588 198.8V202H283.898V198.88C283.898 198.287 283.748 197.833 283.448 197.52C283.154 197.207 282.751 197.05 282.238 197.05C281.711 197.05 281.291 197.217 280.978 197.55C280.664 197.883 280.508 198.373 280.508 199.02V202H279.808V196.54H280.508V197.47C280.681 197.137 280.931 196.883 281.258 196.71C281.584 196.53 281.954 196.44 282.368 196.44ZM287.104 197.13V200.52C287.104 200.853 287.167 201.083 287.294 201.21C287.421 201.337 287.644 201.4 287.964 201.4H288.604V202H287.854C287.361 202 286.994 201.887 286.754 201.66C286.514 201.427 286.394 201.047 286.394 200.52V197.13H285.634V196.54H286.394V195.17H287.104V196.54H288.604V197.13H287.104Z" fill="#9B9EAD"/>
<path d="M297.238 197.18C297.238 197.553 297.148 197.903 296.968 198.23C296.795 198.557 296.518 198.82 296.138 199.02C295.765 199.22 295.291 199.32 294.718 199.32H293.548V202H292.148V195.02H294.718C295.258 195.02 295.718 195.113 296.098 195.3C296.478 195.487 296.761 195.743 296.948 196.07C297.141 196.397 297.238 196.767 297.238 197.18ZM294.658 198.19C295.045 198.19 295.331 198.103 295.518 197.93C295.705 197.75 295.798 197.5 295.798 197.18C295.798 196.5 295.418 196.16 294.658 196.16H293.548V198.19H294.658ZM305.9 195.02V202H304.5V197.46L302.63 202H301.57L299.69 197.46V202H298.29V195.02H299.88L302.1 200.21L304.32 195.02H305.9ZM309.454 196V194.71H311.864V202H310.424V196H309.454ZM313.305 198.26C313.305 197.107 313.512 196.203 313.925 195.55C314.345 194.897 315.039 194.57 316.005 194.57C316.972 194.57 317.662 194.897 318.075 195.55C318.495 196.203 318.705 197.107 318.705 198.26C318.705 199.42 318.495 200.33 318.075 200.99C317.662 201.65 316.972 201.98 316.005 201.98C315.039 201.98 314.345 201.65 313.925 200.99C313.512 200.33 313.305 199.42 313.305 198.26ZM317.325 198.26C317.325 197.767 317.292 197.353 317.225 197.02C317.165 196.68 317.039 196.403 316.845 196.19C316.659 195.977 316.379 195.87 316.005 195.87C315.632 195.87 315.349 195.977 315.155 196.19C314.969 196.403 314.842 196.68 314.775 197.02C314.715 197.353 314.685 197.767 314.685 198.26C314.685 198.767 314.715 199.193 314.775 199.54C314.835 199.88 314.962 200.157 315.155 200.37C315.349 200.577 315.632 200.68 316.005 200.68C316.379 200.68 316.662 200.577 316.855 200.37C317.049 200.157 317.175 199.88 317.235 199.54C317.295 199.193 317.325 198.767 317.325 198.26Z" fill="white"/>
<path fill-rule="evenodd" clip-rule="evenodd" d="M305.333 21C305.333 24.682 308.318 27.6667 312 27.6667C315.682 27.6667 318.667 24.682 318.667 21C318.667 17.318 315.682 14.3334 312 14.3334C308.318 14.3334 305.333 17.318 305.333 21ZM317.333 21C317.333 23.9456 314.946 26.3334 312 26.3334C309.055 26.3334 306.667 23.9456 306.667 21C306.667 18.0545 309.055 15.6667 312 15.6667C314.946 15.6667 317.333 18.0545 317.333 21ZM312.667 17.6667V19H311.333V17.6667H312.667ZM312.667 24.3334V20.3334H311.333V24.3334H312.667Z" fill="white"/>
<path d="M154.42 86.01L152.18 90.28V93H151.48V90.28L149.22 86.01H150.01L151.83 89.64L153.64 86.01H154.42ZM157.893 93.08C157.38 93.08 156.916 92.9667 156.503 92.74C156.096 92.5067 155.773 92.18 155.533 91.76C155.3 91.3333 155.183 90.8367 155.183 90.27C155.183 89.7033 155.303 89.21 155.543 88.79C155.783 88.3633 156.11 88.0367 156.523 87.81C156.936 87.5767 157.4 87.46 157.913 87.46C158.426 87.46 158.89 87.5767 159.303 87.81C159.723 88.0367 160.05 88.3633 160.283 88.79C160.523 89.21 160.643 89.7033 160.643 90.27C160.643 90.83 160.523 91.3233 160.283 91.75C160.043 92.1767 159.713 92.5067 159.293 92.74C158.873 92.9667 158.406 93.08 157.893 93.08ZM157.893 92.47C158.253 92.47 158.586 92.39 158.893 92.23C159.2 92.0633 159.446 91.8167 159.633 91.49C159.826 91.1567 159.923 90.75 159.923 90.27C159.923 89.79 159.83 89.3867 159.643 89.06C159.456 88.7267 159.21 88.48 158.903 88.32C158.596 88.1533 158.263 88.07 157.903 88.07C157.543 88.07 157.21 88.1533 156.903 88.32C156.596 88.48 156.35 88.7267 156.163 89.06C155.983 89.3867 155.893 89.79 155.893 90.27C155.893 90.75 155.983 91.1567 156.163 91.49C156.35 91.8167 156.593 92.0633 156.893 92.23C157.2 92.39 157.533 92.47 157.893 92.47ZM166.707 87.54V93H166.007V92.04C165.847 92.38 165.601 92.64 165.267 92.82C164.934 93 164.561 93.09 164.147 93.09C163.494 93.09 162.961 92.89 162.547 92.49C162.134 92.0833 161.927 91.4967 161.927 90.73V87.54H162.617V90.65C162.617 91.2433 162.764 91.6967 163.057 92.01C163.357 92.3233 163.764 92.48 164.277 92.48C164.804 92.48 165.224 92.3133 165.537 91.98C165.851 91.6467 166.007 91.1567 166.007 90.51V87.54H166.707ZM173.766 87.44C174.179 87.44 174.549 87.5267 174.876 87.7C175.209 87.8733 175.469 88.14 175.656 88.5C175.849 88.8533 175.946 89.2867 175.946 89.8V93H175.256V89.88C175.256 89.2867 175.106 88.8333 174.806 88.52C174.513 88.2067 174.109 88.05 173.596 88.05C173.069 88.05 172.649 88.2167 172.336 88.55C172.023 88.8833 171.866 89.3733 171.866 90.02V93H171.166V85.6H171.866V88.47C172.039 88.1433 172.293 87.89 172.626 87.71C172.966 87.53 173.346 87.44 173.766 87.44ZM177.233 90.26C177.233 89.7 177.343 89.21 177.563 88.79C177.789 88.3633 178.099 88.0367 178.493 87.81C178.893 87.5767 179.343 87.46 179.843 87.46C180.363 87.46 180.809 87.58 181.183 87.82C181.563 88.06 181.836 88.3667 182.003 88.74V87.54H182.703V93H182.003V91.79C181.829 92.1633 181.553 92.4733 181.173 92.72C180.799 92.96 180.353 93.08 179.833 93.08C179.339 93.08 178.893 92.9633 178.493 92.73C178.099 92.4967 177.789 92.1667 177.563 91.74C177.343 91.3133 177.233 90.82 177.233 90.26ZM182.003 90.27C182.003 89.83 181.913 89.4433 181.733 89.11C181.553 88.7767 181.306 88.52 180.993 88.34C180.686 88.16 180.346 88.07 179.973 88.07C179.586 88.07 179.239 88.1567 178.933 88.33C178.626 88.5033 178.383 88.7567 178.203 89.09C178.029 89.4167 177.943 89.8067 177.943 90.26C177.943 90.7067 178.029 91.1 178.203 91.44C178.383 91.7733 178.626 92.03 178.933 92.21C179.239 92.3833 179.586 92.47 179.973 92.47C180.346 92.47 180.686 92.38 180.993 92.2C181.306 92.02 181.553 91.7633 181.733 91.43C181.913 91.0967 182.003 90.71 182.003 90.27ZM186.299 92.32L188.139 87.54H188.879L186.689 93H185.899L183.709 87.54H184.459L186.299 92.32ZM194.826 89.99C194.826 90.23 194.819 90.4133 194.806 90.54H190.276C190.296 90.9533 190.396 91.3067 190.576 91.6C190.756 91.8933 190.993 92.1167 191.286 92.27C191.579 92.4167 191.899 92.49 192.246 92.49C192.699 92.49 193.079 92.38 193.386 92.16C193.699 91.94 193.906 91.6433 194.006 91.27H194.746C194.613 91.8033 194.326 92.24 193.886 92.58C193.453 92.9133 192.906 93.08 192.246 93.08C191.733 93.08 191.273 92.9667 190.866 92.74C190.459 92.5067 190.139 92.18 189.906 91.76C189.679 91.3333 189.566 90.8367 189.566 90.27C189.566 89.7033 189.679 89.2067 189.906 88.78C190.133 88.3533 190.449 88.0267 190.856 87.8C191.263 87.5733 191.726 87.46 192.246 87.46C192.766 87.46 193.219 87.5733 193.606 87.8C193.999 88.0267 194.299 88.3333 194.506 88.72C194.719 89.1 194.826 89.5233 194.826 89.99ZM194.116 89.97C194.123 89.5633 194.039 89.2167 193.866 88.93C193.699 88.6433 193.469 88.4267 193.176 88.28C192.883 88.1333 192.563 88.06 192.216 88.06C191.696 88.06 191.253 88.2267 190.886 88.56C190.519 88.8933 190.316 89.3633 190.276 89.97H194.116ZM201.258 87.46C201.771 87.46 202.218 87.58 202.598 87.82C202.978 88.06 203.251 88.3633 203.418 88.73V87.54H204.118V93.14C204.118 93.64 204.008 94.0833 203.788 94.47C203.574 94.8567 203.274 95.1533 202.888 95.36C202.501 95.5733 202.061 95.68 201.568 95.68C200.868 95.68 200.284 95.5133 199.818 95.18C199.358 94.8467 199.071 94.3933 198.958 93.82H199.648C199.768 94.2 199.994 94.5033 200.328 94.73C200.668 94.9567 201.081 95.07 201.568 95.07C201.921 95.07 202.238 94.9933 202.518 94.84C202.798 94.6933 203.018 94.4733 203.178 94.18C203.338 93.8867 203.418 93.54 203.418 93.14V91.79C203.244 92.1633 202.968 92.4733 202.588 92.72C202.214 92.96 201.771 93.08 201.258 93.08C200.758 93.08 200.308 92.9633 199.908 92.73C199.514 92.4967 199.204 92.1667 198.978 91.74C198.758 91.3133 198.648 90.82 198.648 90.26C198.648 89.7 198.758 89.21 198.978 88.79C199.204 88.3633 199.514 88.0367 199.908 87.81C200.308 87.5767 200.758 87.46 201.258 87.46ZM203.418 90.27C203.418 89.83 203.328 89.4433 203.148 89.11C202.968 88.7767 202.721 88.52 202.408 88.34C202.101 88.16 201.761 88.07 201.388 88.07C201.001 88.07 200.654 88.1567 200.348 88.33C200.041 88.5033 199.798 88.7567 199.618 89.09C199.444 89.4167 199.358 89.8067 199.358 90.26C199.358 90.7067 199.444 91.1 199.618 91.44C199.798 91.7733 200.041 92.03 200.348 92.21C200.654 92.3833 201.001 92.47 201.388 92.47C201.761 92.47 202.101 92.38 202.408 92.2C202.721 92.02 202.968 91.7633 203.148 91.43C203.328 91.0967 203.418 90.71 203.418 90.27ZM208.164 93.08C207.651 93.08 207.187 92.9667 206.774 92.74C206.367 92.5067 206.044 92.18 205.804 91.76C205.571 91.3333 205.454 90.8367 205.454 90.27C205.454 89.7033 205.574 89.21 205.814 88.79C206.054 88.3633 206.381 88.0367 206.794 87.81C207.207 87.5767 207.671 87.46 208.184 87.46C208.697 87.46 209.161 87.5767 209.574 87.81C209.994 88.0367 210.321 88.3633 210.554 88.79C210.794 89.21 210.914 89.7033 210.914 90.27C210.914 90.83 210.794 91.3233 210.554 91.75C210.314 92.1767 209.984 92.5067 209.564 92.74C209.144 92.9667 208.677 93.08 208.164 93.08ZM208.164 92.47C208.524 92.47 208.857 92.39 209.164 92.23C209.471 92.0633 209.717 91.8167 209.904 91.49C210.097 91.1567 210.194 90.75 210.194 90.27C210.194 89.79 210.101 89.3867 209.914 89.06C209.727 88.7267 209.481 88.48 209.174 88.32C208.867 88.1533 208.534 88.07 208.174 88.07C207.814 88.07 207.481 88.1533 207.174 88.32C206.867 88.48 206.621 88.7267 206.434 89.06C206.254 89.3867 206.164 89.79 206.164 90.27C206.164 90.75 206.254 91.1567 206.434 91.49C206.621 91.8167 206.864 92.0633 207.164 92.23C207.471 92.39 207.804 92.47 208.164 92.47ZM214.638 93.08C214.125 93.08 213.662 92.9667 213.248 92.74C212.842 92.5067 212.518 92.18 212.278 91.76C212.045 91.3333 211.928 90.8367 211.928 90.27C211.928 89.7033 212.048 89.21 212.288 88.79C212.528 88.3633 212.855 88.0367 213.268 87.81C213.682 87.5767 214.145 87.46 214.658 87.46C215.172 87.46 215.635 87.5767 216.048 87.81C216.468 88.0367 216.795 88.3633 217.028 88.79C217.268 89.21 217.388 89.7033 217.388 90.27C217.388 90.83 217.268 91.3233 217.028 91.75C216.788 92.1767 216.458 92.5067 216.038 92.74C215.618 92.9667 215.152 93.08 214.638 93.08ZM214.638 92.47C214.998 92.47 215.332 92.39 215.638 92.23C215.945 92.0633 216.192 91.8167 216.378 91.49C216.572 91.1567 216.668 90.75 216.668 90.27C216.668 89.79 216.575 89.3867 216.388 89.06C216.202 88.7267 215.955 88.48 215.648 88.32C215.342 88.1533 215.008 88.07 214.648 88.07C214.288 88.07 213.955 88.1533 213.648 88.32C213.342 88.48 213.095 88.7267 212.908 89.06C212.728 89.3867 212.638 89.79 212.638 90.27C212.638 90.75 212.728 91.1567 212.908 91.49C213.095 91.8167 213.338 92.0633 213.638 92.23C213.945 92.39 214.278 92.47 214.638 92.47ZM218.403 90.26C218.403 89.7 218.516 89.21 218.743 88.79C218.969 88.3633 219.279 88.0367 219.673 87.81C220.073 87.5767 220.523 87.46 221.023 87.46C221.503 87.46 221.936 87.5767 222.323 87.81C222.709 88.0433 222.993 88.3467 223.173 88.72V85.6H223.873V93H223.173V91.78C223.006 92.16 222.733 92.4733 222.353 92.72C221.973 92.96 221.526 93.08 221.013 93.08C220.513 93.08 220.063 92.9633 219.663 92.73C219.269 92.4967 218.959 92.1667 218.733 91.74C218.513 91.3133 218.403 90.82 218.403 90.26ZM223.173 90.27C223.173 89.83 223.083 89.4433 222.903 89.11C222.723 88.7767 222.476 88.52 222.163 88.34C221.856 88.16 221.516 88.07 221.143 88.07C220.756 88.07 220.409 88.1567 220.103 88.33C219.796 88.5033 219.553 88.7567 219.373 89.09C219.199 89.4167 219.113 89.8067 219.113 90.26C219.113 90.7067 219.199 91.1 219.373 91.44C219.553 91.7733 219.796 92.03 220.103 92.21C220.409 92.3833 220.756 92.47 221.143 92.47C221.516 92.47 221.856 92.38 222.163 92.2C222.476 92.02 222.723 91.7633 222.903 91.43C223.083 91.0967 223.173 90.71 223.173 90.27ZM228.012 90.26C228.012 89.7 228.122 89.21 228.342 88.79C228.568 88.3633 228.878 88.0367 229.272 87.81C229.672 87.5767 230.122 87.46 230.622 87.46C231.142 87.46 231.588 87.58 231.962 87.82C232.342 88.06 232.615 88.3667 232.782 88.74V87.54H233.482V93H232.782V91.79C232.608 92.1633 232.332 92.4733 231.952 92.72C231.578 92.96 231.132 93.08 230.612 93.08C230.118 93.08 229.672 92.9633 229.272 92.73C228.878 92.4967 228.568 92.1667 228.342 91.74C228.122 91.3133 228.012 90.82 228.012 90.26ZM232.782 90.27C232.782 89.83 232.692 89.4433 232.512 89.11C232.332 88.7767 232.085 88.52 231.772 88.34C231.465 88.16 231.125 88.07 230.752 88.07C230.365 88.07 230.018 88.1567 229.712 88.33C229.405 88.5033 229.162 88.7567 228.982 89.09C228.808 89.4167 228.722 89.8067 228.722 90.26C228.722 90.7067 228.808 91.1 228.982 91.44C229.162 91.7733 229.405 92.03 229.712 92.21C230.018 92.3833 230.365 92.47 230.752 92.47C231.125 92.47 231.465 92.38 231.772 92.2C232.085 92.02 232.332 91.7633 232.512 91.43C232.692 91.0967 232.782 90.71 232.782 90.27ZM235.488 86.51C235.348 86.51 235.228 86.46 235.128 86.36C235.028 86.26 234.978 86.1367 234.978 85.99C234.978 85.8433 235.028 85.7233 235.128 85.63C235.228 85.53 235.348 85.48 235.488 85.48C235.628 85.48 235.748 85.53 235.848 85.63C235.948 85.7233 235.998 85.8433 235.998 85.99C235.998 86.1367 235.948 86.26 235.848 86.36C235.748 86.46 235.628 86.51 235.488 86.51ZM235.838 87.54V93H235.138V87.54H235.838ZM238.181 88.51C238.335 88.17 238.568 87.9067 238.881 87.72C239.201 87.5333 239.591 87.44 240.051 87.44V88.17H239.861C239.355 88.17 238.948 88.3067 238.641 88.58C238.335 88.8533 238.181 89.31 238.181 89.95V93H237.481V87.54H238.181V88.51ZM243.645 90.26C243.645 89.7 243.759 89.21 243.985 88.79C244.212 88.3633 244.522 88.0367 244.915 87.81C245.315 87.5767 245.765 87.46 246.265 87.46C246.779 87.46 247.225 87.5833 247.605 87.83C247.985 88.07 248.255 88.3733 248.415 88.74V87.54H249.115V95.58H248.415V91.8C248.255 92.1667 247.982 92.4733 247.595 92.72C247.215 92.96 246.765 93.08 246.245 93.08C245.752 93.08 245.305 92.9633 244.905 92.73C244.512 92.4967 244.202 92.1667 243.975 91.74C243.755 91.3133 243.645 90.82 243.645 90.26ZM248.415 90.27C248.415 89.83 248.325 89.4433 248.145 89.11C247.965 88.7767 247.719 88.52 247.405 88.34C247.099 88.16 246.759 88.07 246.385 88.07C245.999 88.07 245.652 88.1567 245.345 88.33C245.039 88.5033 244.795 88.7567 244.615 89.09C244.442 89.4167 244.355 89.8067 244.355 90.26C244.355 90.7067 244.442 91.1 244.615 91.44C244.795 91.7733 245.039 92.03 245.345 92.21C245.652 92.3833 245.999 92.47 246.385 92.47C246.759 92.47 247.099 92.38 247.405 92.2C247.719 92.02 247.965 91.7633 248.145 91.43C248.325 91.0967 248.415 90.71 248.415 90.27ZM255.502 87.54V93H254.802V92.04C254.642 92.38 254.395 92.64 254.062 92.82C253.728 93 253.355 93.09 252.942 93.09C252.288 93.09 251.755 92.89 251.342 92.49C250.928 92.0833 250.722 91.4967 250.722 90.73V87.54H251.412V90.65C251.412 91.2433 251.558 91.6967 251.852 92.01C252.152 92.3233 252.558 92.48 253.072 92.48C253.598 92.48 254.018 92.3133 254.332 91.98C254.645 91.6467 254.802 91.1567 254.802 90.51V87.54H255.502ZM256.838 90.26C256.838 89.7 256.948 89.21 257.168 88.79C257.395 88.3633 257.705 88.0367 258.098 87.81C258.498 87.5767 258.948 87.46 259.448 87.46C259.968 87.46 260.415 87.58 260.788 87.82C261.168 88.06 261.441 88.3667 261.608 88.74V87.54H262.308V93H261.608V91.79C261.435 92.1633 261.158 92.4733 260.778 92.72C260.405 92.96 259.958 93.08 259.438 93.08C258.945 93.08 258.498 92.9633 258.098 92.73C257.705 92.4967 257.395 92.1667 257.168 91.74C256.948 91.3133 256.838 90.82 256.838 90.26ZM261.608 90.27C261.608 89.83 261.518 89.4433 261.338 89.11C261.158 88.7767 260.911 88.52 260.598 88.34C260.291 88.16 259.951 88.07 259.578 88.07C259.191 88.07 258.845 88.1567 258.538 88.33C258.231 88.5033 257.988 88.7567 257.808 89.09C257.635 89.4167 257.548 89.8067 257.548 90.26C257.548 90.7067 257.635 91.1 257.808 91.44C257.988 91.7733 258.231 92.03 258.538 92.21C258.845 92.3833 259.191 92.47 259.578 92.47C259.951 92.47 260.291 92.38 260.598 92.2C260.911 92.02 261.158 91.7633 261.338 91.43C261.518 91.0967 261.608 90.71 261.608 90.27ZM264.664 85.6V93H263.964V85.6H264.664ZM266.658 86.51C266.518 86.51 266.398 86.46 266.298 86.36C266.198 86.26 266.148 86.1367 266.148 85.99C266.148 85.8433 266.198 85.7233 266.298 85.63C266.398 85.53 266.518 85.48 266.658 85.48C266.798 85.48 266.918 85.53 267.018 85.63C267.118 85.7233 267.168 85.8433 267.168 85.99C267.168 86.1367 267.118 86.26 267.018 86.36C266.918 86.46 266.798 86.51 266.658 86.51ZM267.008 87.54V93H266.308V87.54H267.008ZM269.561 88.13V91.52C269.561 91.8533 269.625 92.0833 269.751 92.21C269.878 92.3367 270.101 92.4 270.421 92.4H271.061V93H270.311C269.818 93 269.451 92.8867 269.211 92.66C268.971 92.4267 268.851 92.0467 268.851 91.52V88.13H268.091V87.54H268.851V86.17H269.561V87.54H271.061V88.13H269.561ZM276.774 87.54L273.534 95.57H272.804L273.864 92.97L271.624 87.54H272.394L274.254 92.2L276.054 87.54H276.774ZM283.974 89V89.59H280.084V89H283.974ZM293.571 89.99C293.571 90.23 293.564 90.4133 293.551 90.54H289.021C289.041 90.9533 289.141 91.3067 289.321 91.6C289.501 91.8933 289.737 92.1167 290.031 92.27C290.324 92.4167 290.644 92.49 290.991 92.49C291.444 92.49 291.824 92.38 292.131 92.16C292.444 91.94 292.651 91.6433 292.751 91.27H293.491C293.357 91.8033 293.071 92.24 292.631 92.58C292.197 92.9133 291.651 93.08 290.991 93.08C290.477 93.08 290.017 92.9667 289.611 92.74C289.204 92.5067 288.884 92.18 288.651 91.76C288.424 91.3333 288.311 90.8367 288.311 90.27C288.311 89.7033 288.424 89.2067 288.651 88.78C288.877 88.3533 289.194 88.0267 289.601 87.8C290.007 87.5733 290.471 87.46 290.991 87.46C291.511 87.46 291.964 87.5733 292.351 87.8C292.744 88.0267 293.044 88.3333 293.251 88.72C293.464 89.1 293.571 89.5233 293.571 89.99ZM292.861 89.97C292.867 89.5633 292.784 89.2167 292.611 88.93C292.444 88.6433 292.214 88.4267 291.921 88.28C291.627 88.1333 291.307 88.06 290.961 88.06C290.441 88.06 289.997 88.2267 289.631 88.56C289.264 88.8933 289.061 89.3633 289.021 89.97H292.861ZM297.47 87.44C298.123 87.44 298.656 87.6433 299.07 88.05C299.483 88.45 299.69 89.0333 299.69 89.8V93H299V89.88C299 89.2867 298.85 88.8333 298.55 88.52C298.256 88.2067 297.853 88.05 297.34 88.05C296.813 88.05 296.393 88.2167 296.08 88.55C295.766 88.8833 295.61 89.3733 295.61 90.02V93H294.91V87.54H295.61V88.47C295.783 88.1367 296.033 87.8833 296.36 87.71C296.686 87.53 297.056 87.44 297.47 87.44ZM301.696 86.51C301.556 86.51 301.436 86.46 301.336 86.36C301.236 86.26 301.186 86.1367 301.186 85.99C301.186 85.8433 301.236 85.7233 301.336 85.63C301.436 85.53 301.556 85.48 301.696 85.48C301.836 85.48 301.953 85.53 302.046 85.63C302.146 85.7233 302.196 85.8433 302.196 85.99C302.196 86.1367 302.146 86.26 302.046 86.36C301.953 86.46 301.836 86.51 301.696 86.51ZM302.036 94.29C302.036 94.73 301.926 95.0533 301.706 95.26C301.486 95.4733 301.156 95.58 300.716 95.58H300.226V94.98H300.606C300.866 94.98 301.053 94.9233 301.166 94.81C301.279 94.7033 301.336 94.52 301.336 94.26V87.54H302.036V94.29ZM306.088 93.08C305.575 93.08 305.112 92.9667 304.698 92.74C304.292 92.5067 303.968 92.18 303.728 91.76C303.495 91.3333 303.378 90.8367 303.378 90.27C303.378 89.7033 303.498 89.21 303.738 88.79C303.978 88.3633 304.305 88.0367 304.718 87.81C305.132 87.5767 305.595 87.46 306.108 87.46C306.622 87.46 307.085 87.5767 307.498 87.81C307.918 88.0367 308.245 88.3633 308.478 88.79C308.718 89.21 308.838 89.7033 308.838 90.27C308.838 90.83 308.718 91.3233 308.478 91.75C308.238 92.1767 307.908 92.5067 307.488 92.74C307.068 92.9667 306.602 93.08 306.088 93.08ZM306.088 92.47C306.448 92.47 306.782 92.39 307.088 92.23C307.395 92.0633 307.642 91.8167 307.828 91.49C308.022 91.1567 308.118 90.75 308.118 90.27C308.118 89.79 308.025 89.3867 307.838 89.06C307.652 88.7267 307.405 88.48 307.098 88.32C306.792 88.1533 306.458 88.07 306.098 88.07C305.738 88.07 305.405 88.1533 305.098 88.32C304.792 88.48 304.545 88.7267 304.358 89.06C304.178 89.3867 304.088 89.79 304.088 90.27C304.088 90.75 304.178 91.1567 304.358 91.49C304.545 91.8167 304.788 92.0633 305.088 92.23C305.395 92.39 305.728 92.47 306.088 92.47ZM314.673 87.54L311.433 95.57H310.703L311.763 92.97L309.523 87.54H310.293L312.153 92.2L313.953 87.54H314.673ZM154.3 102.54L151.06 110.57H150.33L151.39 107.97L149.15 102.54H149.92L151.78 107.2L153.58 102.54H154.3ZM157.698 108.08C157.184 108.08 156.721 107.967 156.308 107.74C155.901 107.507 155.578 107.18 155.338 106.76C155.104 106.333 154.988 105.837 154.988 105.27C154.988 104.703 155.108 104.21 155.348 103.79C155.588 103.363 155.914 103.037 156.328 102.81C156.741 102.577 157.204 102.46 157.718 102.46C158.231 102.46 158.694 102.577 159.108 102.81C159.528 103.037 159.854 103.363 160.088 103.79C160.328 104.21 160.448 104.703 160.448 105.27C160.448 105.83 160.328 106.323 160.088 106.75C159.848 107.177 159.518 107.507 159.098 107.74C158.678 107.967 158.211 108.08 157.698 108.08ZM157.698 107.47C158.058 107.47 158.391 107.39 158.698 107.23C159.004 107.063 159.251 106.817 159.438 106.49C159.631 106.157 159.728 105.75 159.728 105.27C159.728 104.79 159.634 104.387 159.448 104.06C159.261 103.727 159.014 103.48 158.708 103.32C158.401 103.153 158.068 103.07 157.708 103.07C157.348 103.07 157.014 103.153 156.708 103.32C156.401 103.48 156.154 103.727 155.968 104.06C155.788 104.387 155.698 104.79 155.698 105.27C155.698 105.75 155.788 106.157 155.968 106.49C156.154 106.817 156.398 107.063 156.698 107.23C157.004 107.39 157.338 107.47 157.698 107.47ZM166.512 102.54V108H165.812V107.04C165.652 107.38 165.405 107.64 165.072 107.82C164.739 108 164.365 108.09 163.952 108.09C163.299 108.09 162.765 107.89 162.352 107.49C161.939 107.083 161.732 106.497 161.732 105.73V102.54H162.422V105.65C162.422 106.243 162.569 106.697 162.862 107.01C163.162 107.323 163.569 107.48 164.082 107.48C164.609 107.48 165.029 107.313 165.342 106.98C165.655 106.647 165.812 106.157 165.812 105.51V102.54H166.512ZM168.868 103.51C169.022 103.17 169.255 102.907 169.568 102.72C169.888 102.533 170.278 102.44 170.738 102.44V103.17H170.548C170.042 103.17 169.635 103.307 169.328 103.58C169.022 103.853 168.868 104.31 168.868 104.95V108H168.168V102.54H168.868V103.51ZM177.042 108.08C176.529 108.08 176.066 107.967 175.652 107.74C175.246 107.507 174.922 107.18 174.682 106.76C174.449 106.333 174.332 105.837 174.332 105.27C174.332 104.703 174.452 104.21 174.692 103.79C174.932 103.363 175.259 103.037 175.672 102.81C176.086 102.577 176.549 102.46 177.062 102.46C177.576 102.46 178.039 102.577 178.452 102.81C178.872 103.037 179.199 103.363 179.432 103.79C179.672 104.21 179.792 104.703 179.792 105.27C179.792 105.83 179.672 106.323 179.432 106.75C179.192 107.177 178.862 107.507 178.442 107.74C178.022 107.967 177.556 108.08 177.042 108.08ZM177.042 107.47C177.402 107.47 177.736 107.39 178.042 107.23C178.349 107.063 178.596 106.817 178.782 106.49C178.976 106.157 179.072 105.75 179.072 105.27C179.072 104.79 178.979 104.387 178.792 104.06C178.606 103.727 178.359 103.48 178.052 103.32C177.746 103.153 177.412 103.07 177.052 103.07C176.692 103.07 176.359 103.153 176.052 103.32C175.746 103.48 175.499 103.727 175.312 104.06C175.132 104.387 175.042 104.79 175.042 105.27C175.042 105.75 175.132 106.157 175.312 106.49C175.499 106.817 175.742 107.063 176.042 107.23C176.349 107.39 176.682 107.47 177.042 107.47ZM185.857 102.54V108H185.157V107.04C184.997 107.38 184.75 107.64 184.417 107.82C184.083 108 183.71 108.09 183.297 108.09C182.643 108.09 182.11 107.89 181.697 107.49C181.283 107.083 181.077 106.497 181.077 105.73V102.54H181.767V105.65C181.767 106.243 181.913 106.697 182.207 107.01C182.507 107.323 182.913 107.48 183.427 107.48C183.953 107.48 184.373 107.313 184.687 106.98C185 106.647 185.157 106.157 185.157 105.51V102.54H185.857ZM188.423 103.13V106.52C188.423 106.853 188.486 107.083 188.613 107.21C188.74 107.337 188.963 107.4 189.283 107.4H189.923V108H189.173C188.68 108 188.313 107.887 188.073 107.66C187.833 107.427 187.713 107.047 187.713 106.52V103.13H186.953V102.54H187.713V101.17H188.423V102.54H189.923V103.13H188.423ZM190.816 105.26C190.816 104.7 190.929 104.21 191.156 103.79C191.382 103.363 191.692 103.037 192.086 102.81C192.486 102.577 192.936 102.46 193.436 102.46C193.916 102.46 194.349 102.577 194.736 102.81C195.122 103.043 195.406 103.347 195.586 103.72V100.6H196.286V108H195.586V106.78C195.419 107.16 195.146 107.473 194.766 107.72C194.386 107.96 193.939 108.08 193.426 108.08C192.926 108.08 192.476 107.963 192.076 107.73C191.682 107.497 191.372 107.167 191.146 106.74C190.926 106.313 190.816 105.82 190.816 105.26ZM195.586 105.27C195.586 104.83 195.496 104.443 195.316 104.11C195.136 103.777 194.889 103.52 194.576 103.34C194.269 103.16 193.929 103.07 193.556 103.07C193.169 103.07 192.822 103.157 192.516 103.33C192.209 103.503 191.966 103.757 191.786 104.09C191.612 104.417 191.526 104.807 191.526 105.26C191.526 105.707 191.612 106.1 191.786 106.44C191.966 106.773 192.209 107.03 192.516 107.21C192.822 107.383 193.169 107.47 193.556 107.47C193.929 107.47 194.269 107.38 194.576 107.2C194.889 107.02 195.136 106.763 195.316 106.43C195.496 106.097 195.586 105.71 195.586 105.27ZM200.332 108.08C199.819 108.08 199.356 107.967 198.942 107.74C198.536 107.507 198.212 107.18 197.972 106.76C197.739 106.333 197.622 105.837 197.622 105.27C197.622 104.703 197.742 104.21 197.982 103.79C198.222 103.363 198.549 103.037 198.962 102.81C199.376 102.577 199.839 102.46 200.352 102.46C200.866 102.46 201.329 102.577 201.742 102.81C202.162 103.037 202.489 103.363 202.722 103.79C202.962 104.21 203.082 104.703 203.082 105.27C203.082 105.83 202.962 106.323 202.722 106.75C202.482 107.177 202.152 107.507 201.732 107.74C201.312 107.967 200.846 108.08 200.332 108.08ZM200.332 107.47C200.692 107.47 201.026 107.39 201.332 107.23C201.639 107.063 201.886 106.817 202.072 106.49C202.266 106.157 202.362 105.75 202.362 105.27C202.362 104.79 202.269 104.387 202.082 104.06C201.896 103.727 201.649 103.48 201.342 103.32C201.036 103.153 200.702 103.07 200.342 103.07C199.982 103.07 199.649 103.153 199.342 103.32C199.036 103.48 198.789 103.727 198.602 104.06C198.422 104.387 198.332 104.79 198.332 105.27C198.332 105.75 198.422 106.157 198.602 106.49C198.789 106.817 199.032 107.063 199.332 107.23C199.639 107.39 199.972 107.47 200.332 107.47ZM206.807 108.08C206.293 108.08 205.83 107.967 205.417 107.74C205.01 107.507 204.687 107.18 204.447 106.76C204.213 106.333 204.097 105.837 204.097 105.27C204.097 104.703 204.217 104.21 204.457 103.79C204.697 103.363 205.023 103.037 205.437 102.81C205.85 102.577 206.313 102.46 206.827 102.46C207.34 102.46 207.803 102.577 208.217 102.81C208.637 103.037 208.963 103.363 209.197 103.79C209.437 104.21 209.557 104.703 209.557 105.27C209.557 105.83 209.437 106.323 209.197 106.75C208.957 107.177 208.627 107.507 208.207 107.74C207.787 107.967 207.32 108.08 206.807 108.08ZM206.807 107.47C207.167 107.47 207.5 107.39 207.807 107.23C208.113 107.063 208.36 106.817 208.547 106.49C208.74 106.157 208.837 105.75 208.837 105.27C208.837 104.79 208.743 104.387 208.557 104.06C208.37 103.727 208.123 103.48 207.817 103.32C207.51 103.153 207.177 103.07 206.817 103.07C206.457 103.07 206.123 103.153 205.817 103.32C205.51 103.48 205.263 103.727 205.077 104.06C204.897 104.387 204.807 104.79 204.807 105.27C204.807 105.75 204.897 106.157 205.077 106.49C205.263 106.817 205.507 107.063 205.807 107.23C206.113 107.39 206.447 107.47 206.807 107.47ZM211.591 103.51C211.744 103.17 211.978 102.907 212.291 102.72C212.611 102.533 213.001 102.44 213.461 102.44V103.17H213.271C212.764 103.17 212.358 103.307 212.051 103.58C211.744 103.853 211.591 104.31 211.591 104.95V108H210.891V102.54H211.591V103.51ZM217.055 105.26C217.055 104.7 217.165 104.21 217.385 103.79C217.611 103.363 217.921 103.037 218.315 102.81C218.715 102.577 219.165 102.46 219.665 102.46C220.185 102.46 220.631 102.58 221.005 102.82C221.385 103.06 221.658 103.367 221.825 103.74V102.54H222.525V108H221.825V106.79C221.651 107.163 221.375 107.473 220.995 107.72C220.621 107.96 220.175 108.08 219.655 108.08C219.161 108.08 218.715 107.963 218.315 107.73C217.921 107.497 217.611 107.167 217.385 106.74C217.165 106.313 217.055 105.82 217.055 105.26ZM221.825 105.27C221.825 104.83 221.735 104.443 221.555 104.11C221.375 103.777 221.128 103.52 220.815 103.34C220.508 103.16 220.168 103.07 219.795 103.07C219.408 103.07 219.061 103.157 218.755 103.33C218.448 103.503 218.205 103.757 218.025 104.09C217.851 104.417 217.765 104.807 217.765 105.26C217.765 105.707 217.851 106.1 218.025 106.44C218.205 106.773 218.448 107.03 218.755 107.21C219.061 107.383 219.408 107.47 219.795 107.47C220.168 107.47 220.508 107.38 220.815 107.2C221.128 107.02 221.375 106.763 221.555 106.43C221.735 106.097 221.825 105.71 221.825 105.27ZM223.861 105.27C223.861 104.703 223.974 104.21 224.201 103.79C224.428 103.363 224.741 103.037 225.141 102.81C225.541 102.577 225.998 102.46 226.511 102.46C227.184 102.46 227.738 102.627 228.171 102.96C228.611 103.293 228.894 103.747 229.021 104.32H228.271C228.178 103.927 227.974 103.62 227.661 103.4C227.354 103.173 226.971 103.06 226.511 103.06C226.144 103.06 225.814 103.143 225.521 103.31C225.228 103.477 224.994 103.727 224.821 104.06C224.654 104.387 224.571 104.79 224.571 105.27C224.571 105.75 224.654 106.157 224.821 106.49C224.994 106.823 225.228 107.073 225.521 107.24C225.814 107.407 226.144 107.49 226.511 107.49C226.971 107.49 227.354 107.38 227.661 107.16C227.974 106.933 228.178 106.62 228.271 106.22H229.021C228.894 106.78 228.611 107.23 228.171 107.57C227.731 107.91 227.178 108.08 226.511 108.08C225.998 108.08 225.541 107.967 225.141 107.74C224.741 107.507 224.428 107.18 224.201 106.76C223.974 106.333 223.861 105.837 223.861 105.27ZM231.282 103.13V106.52C231.282 106.853 231.346 107.083 231.472 107.21C231.599 107.337 231.822 107.4 232.142 107.4H232.782V108H232.032C231.539 108 231.172 107.887 230.932 107.66C230.692 107.427 230.572 107.047 230.572 106.52V103.13H229.812V102.54H230.572V101.17H231.282V102.54H232.782V103.13H231.282ZM234.345 101.51C234.205 101.51 234.085 101.46 233.985 101.36C233.885 101.26 233.835 101.137 233.835 100.99C233.835 100.843 233.885 100.723 233.985 100.63C234.085 100.53 234.205 100.48 234.345 100.48C234.485 100.48 234.605 100.53 234.705 100.63C234.805 100.723 234.855 100.843 234.855 100.99C234.855 101.137 234.805 101.26 234.705 101.36C234.605 101.46 234.485 101.51 234.345 101.51ZM234.695 102.54V108H233.995V102.54H234.695ZM238.279 107.32L240.119 102.54H240.859L238.669 108H237.879L235.689 102.54H236.439L238.279 107.32ZM242.216 101.51C242.076 101.51 241.956 101.46 241.856 101.36C241.756 101.26 241.706 101.137 241.706 100.99C241.706 100.843 241.756 100.723 241.856 100.63C241.956 100.53 242.076 100.48 242.216 100.48C242.356 100.48 242.476 100.53 242.576 100.63C242.676 100.723 242.726 100.843 242.726 100.99C242.726 101.137 242.676 101.26 242.576 101.36C242.476 101.46 242.356 101.51 242.216 101.51ZM242.566 102.54V108H241.866V102.54H242.566ZM245.119 103.13V106.52C245.119 106.853 245.182 107.083 245.309 107.21C245.436 107.337 245.659 107.4 245.979 107.4H246.619V108H245.869C245.376 108 245.009 107.887 244.769 107.66C244.529 107.427 244.409 107.047 244.409 106.52V103.13H243.649V102.54H244.409V101.17H245.119V102.54H246.619V103.13H245.119ZM248.182 101.51C248.042 101.51 247.922 101.46 247.822 101.36C247.722 101.26 247.672 101.137 247.672 100.99C247.672 100.843 247.722 100.723 247.822 100.63C247.922 100.53 248.042 100.48 248.182 100.48C248.322 100.48 248.442 100.53 248.542 100.63C248.642 100.723 248.692 100.843 248.692 100.99C248.692 101.137 248.642 101.26 248.542 101.36C248.442 101.46 248.322 101.51 248.182 101.51ZM248.532 102.54V108H247.832V102.54H248.532ZM255.115 104.99C255.115 105.23 255.109 105.413 255.095 105.54H250.565C250.585 105.953 250.685 106.307 250.865 106.6C251.045 106.893 251.282 107.117 251.575 107.27C251.869 107.417 252.189 107.49 252.535 107.49C252.989 107.49 253.369 107.38 253.675 107.16C253.989 106.94 254.195 106.643 254.295 106.27H255.035C254.902 106.803 254.615 107.24 254.175 107.58C253.742 107.913 253.195 108.08 252.535 108.08C252.022 108.08 251.562 107.967 251.155 107.74C250.749 107.507 250.429 107.18 250.195 106.76C249.969 106.333 249.855 105.837 249.855 105.27C249.855 104.703 249.969 104.207 250.195 103.78C250.422 103.353 250.739 103.027 251.145 102.8C251.552 102.573 252.015 102.46 252.535 102.46C253.055 102.46 253.509 102.573 253.895 102.8C254.289 103.027 254.589 103.333 254.795 103.72C255.009 104.1 255.115 104.523 255.115 104.99ZM254.405 104.97C254.412 104.563 254.329 104.217 254.155 103.93C253.989 103.643 253.759 103.427 253.465 103.28C253.172 103.133 252.852 103.06 252.505 103.06C251.985 103.06 251.542 103.227 251.175 103.56C250.809 103.893 250.605 104.363 250.565 104.97H254.405ZM258.334 108.08C257.708 108.08 257.194 107.937 256.794 107.65C256.401 107.357 256.181 106.96 256.134 106.46H256.854C256.888 106.767 257.031 107.017 257.284 107.21C257.544 107.397 257.891 107.49 258.324 107.49C258.704 107.49 259.001 107.4 259.214 107.22C259.434 107.04 259.544 106.817 259.544 106.55C259.544 106.363 259.484 106.21 259.364 106.09C259.244 105.97 259.091 105.877 258.904 105.81C258.724 105.737 258.478 105.66 258.164 105.58C257.758 105.473 257.428 105.367 257.174 105.26C256.921 105.153 256.704 104.997 256.524 104.79C256.351 104.577 256.264 104.293 256.264 103.94C256.264 103.673 256.344 103.427 256.504 103.2C256.664 102.973 256.891 102.793 257.184 102.66C257.478 102.527 257.811 102.46 258.184 102.46C258.771 102.46 259.244 102.61 259.604 102.91C259.964 103.203 260.158 103.61 260.184 104.13H259.484C259.464 103.81 259.338 103.553 259.104 103.36C258.878 103.16 258.564 103.06 258.164 103.06C257.811 103.06 257.524 103.143 257.304 103.31C257.084 103.477 256.974 103.683 256.974 103.93C256.974 104.143 257.038 104.32 257.164 104.46C257.298 104.593 257.461 104.7 257.654 104.78C257.848 104.853 258.108 104.937 258.434 105.03C258.828 105.137 259.141 105.24 259.374 105.34C259.608 105.44 259.808 105.587 259.974 105.78C260.141 105.973 260.228 106.23 260.234 106.55C260.234 106.843 260.154 107.107 259.994 107.34C259.834 107.567 259.611 107.747 259.324 107.88C259.038 108.013 258.708 108.08 258.334 108.08ZM261.73 108.05C261.584 108.05 261.46 108 261.36 107.9C261.267 107.8 261.22 107.677 261.22 107.53C261.22 107.383 261.267 107.263 261.36 107.17C261.46 107.07 261.584 107.02 261.73 107.02C261.87 107.02 261.987 107.07 262.08 107.17C262.18 107.263 262.23 107.383 262.23 107.53C262.23 107.677 262.18 107.8 262.08 107.9C261.987 108 261.87 108.05 261.73 108.05Z" fill="#9B9EAD"/>
</g>
<defs>
<filter id="filter0_f_0_2600" x="60.9267" y="35.1269" width="51.3156" height="33.286" filterUnits="userSpaceOnUse" color-interpolation-filters="sRGB">
<feFlood flood-opacity="0" result="BackgroundImageFix"/>
<feBlend mode="normal" in="SourceGraphic" in2="BackgroundImageFix" result="shape"/>
<feGaussianBlur stdDeviation="5.43656" result="effect1_foregroundBlur_0_2600"/>
</filter>
<linearGradient id="paint0_linear_0_2600" x1="322.243" y1="197.02" x2="322.243" y2="0" gradientUnits="userSpaceOnUse">
<stop stop-color="#232329"/>
<stop offset="1" stop-color="#2F313A"/>
</linearGradient>
<radialGradient id="paint1_radial_0_2600" cx="0" cy="0" r="1" gradientUnits="userSpaceOnUse" gradientTransform="translate(77.7437 54.2278) rotate(90) scale(3.28063 13.9587)">
<stop stop-color="#22FFE0"/>
<stop offset="0.704454" stop-color="#FEDE35"/>
<stop offset="1" stop-color="#FE381D"/>
</radialGradient>
<radialGradient id="paint2_radial_0_2600" cx="0" cy="0" r="1" gradientUnits="userSpaceOnUse" gradientTransform="translate(42.6879 111.027) rotate(59.8214) scale(48.3563 55.8527)">
<stop stop-color="#22FFE0"/>
<stop offset="0.667541" stop-color="#FEDE35"/>
<stop offset="0.946561" stop-color="#FE381D"/>
<stop offset="1" stop-color="#FE1D1D"/>
</radialGradient>
<clipPath id="clip0_0_2600">
<rect width="340" height="220" fill="white"/>
</clipPath>
<clipPath id="clip1_0_2600">
<rect width="106" height="111" fill="white" transform="translate(22 49)"/>
</clipPath>
</defs>
</svg>
