<svg width="122" height="124" viewBox="0 0 122 124" fill="none" xmlns="http://www.w3.org/2000/svg">
<g filter="url(#filter0_f_0_2574)">
<circle cx="74.6665" cy="48" r="14" fill="url(#paint0_radial_0_2574)"/>
</g>
<ellipse cx="74.5422" cy="48.3797" rx="17.6271" ry="17.5999" fill="url(#paint1_linear_0_2574)"/>
<rect x="73.6001" y="26" width="1.6" height="3.18658" rx="0.8" fill="url(#paint2_linear_0_2574)"/>
<path fill-rule="evenodd" clip-rule="evenodd" d="M87.8015 31.3614C88.0849 31.0251 88.5868 30.9812 88.9243 31.2631C89.2637 31.5468 89.3079 32.0523 89.0229 32.3906L87.9952 33.6102C87.7118 33.9465 87.2099 33.9904 86.8724 33.7084C86.533 33.4248 86.4887 32.9193 86.7738 32.581L87.8015 31.3614Z" fill="url(#paint3_linear_0_2574)"/>
<path fill-rule="evenodd" clip-rule="evenodd" d="M95.7342 43.9504C96.1672 43.8743 96.5799 44.1633 96.6565 44.5962C96.7333 45.0299 96.4436 45.4437 96.0098 45.5198L94.4279 45.7976C93.9949 45.8736 93.5822 45.5846 93.5056 45.1518C93.4288 44.718 93.7185 44.3043 94.1523 44.2281L95.7342 43.9504Z" fill="url(#paint4_linear_0_2574)"/>
<path fill-rule="evenodd" clip-rule="evenodd" d="M93.6782 58.6691C94.061 58.8891 94.1921 59.3784 93.9706 59.7604C93.7503 60.1405 93.2641 60.2707 92.8832 60.0518L91.4947 59.2535C91.1119 59.0334 90.9808 58.5441 91.2022 58.1621C91.4226 57.7821 91.9088 57.6518 92.2896 57.8707L93.6782 58.6691Z" fill="url(#paint5_linear_0_2574)"/>
<path fill-rule="evenodd" clip-rule="evenodd" d="M82.6061 68.6278C82.758 69.0434 82.5435 69.5033 82.1276 69.6541C81.7132 69.8043 81.2554 69.5908 81.1041 69.1768L80.5586 67.6844C80.4067 67.2689 80.6212 66.809 81.0372 66.6582C81.4515 66.508 81.9093 66.7215 82.0606 67.1354L82.6061 68.6278Z" fill="url(#paint6_linear_0_2574)"/>
<path fill-rule="evenodd" clip-rule="evenodd" d="M67.6957 69.1767C67.5444 69.5907 67.0866 69.8042 66.6723 69.654C66.2563 69.5032 66.0418 69.0433 66.1937 68.6277L66.7392 67.1353C66.8905 66.7214 67.3483 66.5079 67.7627 66.6581C68.1786 66.8089 68.3931 67.2688 68.2412 67.6843L67.6957 69.1767Z" fill="url(#paint7_linear_0_2574)"/>
<path fill-rule="evenodd" clip-rule="evenodd" d="M55.9165 60.0517C55.5356 60.2707 55.0494 60.1404 54.8291 59.7603C54.6076 59.3783 54.7387 58.8891 55.1215 58.669L56.5101 57.8707C56.8909 57.6517 57.3771 57.782 57.5975 58.162C57.8189 58.544 57.6878 59.0333 57.305 59.2534L55.9165 60.0517Z" fill="url(#paint8_linear_0_2574)"/>
<path fill-rule="evenodd" clip-rule="evenodd" d="M52.7903 45.5198C52.3564 45.4436 52.0667 45.0299 52.1435 44.5962C52.2202 44.1633 52.6329 43.8743 53.0658 43.9503L54.6477 44.2281C55.0816 44.3043 55.3713 44.718 55.2945 45.1518C55.2179 45.5846 54.8051 45.8736 54.3722 45.7976L52.7903 45.5198Z" fill="url(#paint9_linear_0_2574)"/>
<path fill-rule="evenodd" clip-rule="evenodd" d="M59.777 32.3906C59.492 32.0523 59.5362 31.5468 59.8756 31.2632C60.2131 30.9812 60.715 31.0251 60.9984 31.3614L62.0261 32.581C62.3111 32.9193 62.2669 33.4248 61.9275 33.7085C61.59 33.9904 61.0881 33.9465 60.8047 33.6102L59.777 32.3906Z" fill="url(#paint10_linear_0_2574)"/>
<g filter="url(#filter1_d_0_2574)">
<path fill-rule="evenodd" clip-rule="evenodd" d="M83.3559 89.3333H47.9322L46.7458 89.3333V89.3069C32.9745 88.6918 22 77.4224 22 63.6104C22 49.404 33.6102 37.8875 47.9322 37.8875C59.4115 37.8875 69.1487 45.2861 72.5618 55.5382C75.6079 53.3749 79.3332 52.1028 83.3559 52.1028C93.6528 52.1028 102 60.4371 102 70.7181C102 80.7724 94.0167 88.965 84.0339 89.3212V89.3333L83.3559 89.3333Z" fill="url(#paint11_radial_0_2574)"/>
</g>
<g filter="url(#filter2_i_0_2574)">
<path fill-rule="evenodd" clip-rule="evenodd" d="M83.3559 89.3333H47.9322L46.7458 89.3333V89.3069C32.9745 88.6918 22 77.4224 22 63.6104C22 49.404 33.6102 37.8875 47.9322 37.8875C59.4115 37.8875 69.1487 45.2861 72.5618 55.5382C75.6079 53.3749 79.3332 52.1028 83.3559 52.1028C93.6528 52.1028 102 60.4371 102 70.7181C102 80.7724 94.0167 88.965 84.0339 89.3212V89.3333L83.3559 89.3333Z" fill="url(#paint12_radial_0_2574)"/>
</g>
<defs>
<filter id="filter0_f_0_2574" x="27.6269" y="0.960438" width="94.0791" height="94.0791" filterUnits="userSpaceOnUse" color-interpolation-filters="sRGB">
<feFlood flood-opacity="0" result="BackgroundImageFix"/>
<feBlend mode="normal" in="SourceGraphic" in2="BackgroundImageFix" result="shape"/>
<feGaussianBlur stdDeviation="16.5198" result="effect1_foregroundBlur_0_2574"/>
</filter>
<filter id="filter1_d_0_2574" x="-8" y="31.8875" width="120" height="91.4459" filterUnits="userSpaceOnUse" color-interpolation-filters="sRGB">
<feFlood flood-opacity="0" result="BackgroundImageFix"/>
<feColorMatrix in="SourceAlpha" type="matrix" values="0 0 0 0 0 0 0 0 0 0 0 0 0 0 0 0 0 0 127 0" result="hardAlpha"/>
<feOffset dx="-10" dy="14"/>
<feGaussianBlur stdDeviation="10"/>
<feColorMatrix type="matrix" values="0 0 0 0 0.184314 0 0 0 0 0.188235 0 0 0 0 0.223529 0 0 0 1 0"/>
<feBlend mode="normal" in2="BackgroundImageFix" result="effect1_dropShadow_0_2574"/>
<feBlend mode="normal" in="SourceGraphic" in2="effect1_dropShadow_0_2574" result="shape"/>
</filter>
<filter id="filter2_i_0_2574" x="22" y="37.8875" width="80" height="53.4459" filterUnits="userSpaceOnUse" color-interpolation-filters="sRGB">
<feFlood flood-opacity="0" result="BackgroundImageFix"/>
<feBlend mode="normal" in="SourceGraphic" in2="BackgroundImageFix" result="shape"/>
<feColorMatrix in="SourceAlpha" type="matrix" values="0 0 0 0 0 0 0 0 0 0 0 0 0 0 0 0 0 0 127 0" result="hardAlpha"/>
<feOffset dy="2"/>
<feGaussianBlur stdDeviation="1"/>
<feComposite in2="hardAlpha" operator="arithmetic" k2="-1" k3="1"/>
<feColorMatrix type="matrix" values="0 0 0 0 1 0 0 0 0 1 0 0 0 0 1 0 0 0 1 0"/>
<feBlend mode="normal" in2="shape" result="effect1_innerShadow_0_2574"/>
</filter>
<radialGradient id="paint0_radial_0_2574" cx="0" cy="0" r="1" gradientUnits="userSpaceOnUse" gradientTransform="translate(80.5081 34) rotate(112.114) scale(21.2633 37.4456)">
<stop stop-color="#FFC100"/>
<stop offset="1" stop-color="#FF3100"/>
</radialGradient>
<linearGradient id="paint1_linear_0_2574" x1="64.7914" y1="32.1986" x2="64.7914" y2="51.67" gradientUnits="userSpaceOnUse">
<stop stop-color="#FFC100"/>
<stop offset="1" stop-color="#FF8E00"/>
</linearGradient>
<linearGradient id="paint2_linear_0_2574" x1="73.9576" y1="26.1284" x2="73.9576" y2="27.8912" gradientUnits="userSpaceOnUse">
<stop stop-color="#FFC100"/>
<stop offset="1" stop-color="#FF8E00"/>
</linearGradient>
<linearGradient id="paint3_linear_0_2574" x1="88.5027" y1="31.0754" x2="87.3665" y2="32.4295" gradientUnits="userSpaceOnUse">
<stop stop-color="#FFC100"/>
<stop offset="1" stop-color="#FF8E00"/>
</linearGradient>
<linearGradient id="paint4_linear_0_2574" x1="96.4534" y1="44.1838" x2="94.7098" y2="44.4913" gradientUnits="userSpaceOnUse">
<stop stop-color="#FFC100"/>
<stop offset="1" stop-color="#FF8E00"/>
</linearGradient>
<linearGradient id="paint5_linear_0_2574" x1="94.0816" y1="59.3132" x2="92.5488" y2="58.4283" gradientUnits="userSpaceOnUse">
<stop stop-color="#FFC100"/>
<stop offset="1" stop-color="#FF8E00"/>
</linearGradient>
<linearGradient id="paint6_linear_0_2574" x1="82.5007" y1="69.3826" x2="81.8971" y2="67.7242" gradientUnits="userSpaceOnUse">
<stop stop-color="#FFC100"/>
<stop offset="1" stop-color="#FF8E00"/>
</linearGradient>
<linearGradient id="paint7_linear_0_2574" x1="67.1326" y1="69.6858" x2="67.7362" y2="68.0275" gradientUnits="userSpaceOnUse">
<stop stop-color="#FFC100"/>
<stop offset="1" stop-color="#FF8E00"/>
</linearGradient>
<linearGradient id="paint8_linear_0_2574" x1="55.1609" y1="60.08" x2="56.6937" y2="59.1951" gradientUnits="userSpaceOnUse">
<stop stop-color="#FFC100"/>
<stop offset="1" stop-color="#FF8E00"/>
</linearGradient>
<linearGradient id="paint9_linear_0_2574" x1="52.1934" y1="45.0531" x2="53.937" y2="45.3606" gradientUnits="userSpaceOnUse">
<stop stop-color="#FFC100"/>
<stop offset="1" stop-color="#FF8E00"/>
</linearGradient>
<linearGradient id="paint10_linear_0_2574" x1="59.6175" y1="31.6457" x2="60.7537" y2="32.9998" gradientUnits="userSpaceOnUse">
<stop stop-color="#FFC100"/>
<stop offset="1" stop-color="#FF8E00"/>
</linearGradient>
<radialGradient id="paint11_radial_0_2574" cx="0" cy="0" r="1" gradientUnits="userSpaceOnUse" gradientTransform="translate(64.2739 49.0033) rotate(90) scale(60.3267 93.8102)">
<stop stop-color="white"/>
<stop offset="1" stop-color="#DEE5EE"/>
</radialGradient>
<radialGradient id="paint12_radial_0_2574" cx="0" cy="0" r="1" gradientUnits="userSpaceOnUse" gradientTransform="translate(64.2739 49.0033) rotate(90) scale(60.3267 93.8102)">
<stop stop-color="white" stop-opacity="0.103027"/>
<stop offset="1" stop-color="#DEE5EE"/>
</radialGradient>
</defs>
</svg>
