<svg width="9" height="12" viewBox="0 0 9 12" fill="none" xmlns="http://www.w3.org/2000/svg">
<path fill-rule="evenodd" clip-rule="evenodd" d="M5.11011 0.540558C5.27961 0.786447 5.45939 1.04726 5.65472 1.323C6.99623 3.21389 9 6.05022 9 7.6803C9 8.87025 8.49057 9.9461 7.67547 10.7285C6.86038 11.511 5.73962 12 4.5 12C3.26038 12 2.13962 11.511 1.32453 10.7448C0.509434 9.96241 0 8.88656 0 7.6966C0 6.06652 2.00377 3.21389 3.34528 1.323C3.65094 0.899184 3.90566 0.540567 4.12642 0.198251C4.26226 0.00264193 4.53396 -0.0625611 4.73774 0.0678449C4.78868 0.100446 4.83962 0.149349 4.87358 0.198251C4.95046 0.308944 5.02911 0.423047 5.11011 0.540558ZM6.67358 7.7781C6.69057 7.54989 6.89434 7.37058 7.13208 7.38689C7.36981 7.40319 7.5566 7.5988 7.53962 7.82701C7.52264 8.33233 7.36981 8.82135 7.09811 9.22887C6.8434 9.63639 6.46981 9.99501 6.01132 10.2395C5.80755 10.3536 5.53585 10.2884 5.4 10.0602C5.28113 9.8646 5.36604 9.60379 5.56981 9.48968C5.89245 9.32668 6.16415 9.06586 6.35094 8.77245C6.53774 8.47904 6.6566 8.13672 6.67358 7.7781Z" fill="white"/>
</svg>
