<svg width="347" height="156" viewBox="0 0 347 156" fill="none" xmlns="http://www.w3.org/2000/svg">
<g clip-path="url(#clip0_0_2623)">
<path d="M0 10C0 4.47716 4.47715 0 10 0H330C335.523 0 340 4.47715 340 10V146C340 151.523 335.523 156 330 156H10C4.47716 156 0 151.523 0 146L0 10Z" fill="url(#paint0_linear_0_2623)"/>
<path d="M15 113.5H324.5" stroke="#979797" stroke-opacity="0.165167" stroke-width="0.5" stroke-dasharray="5 5"/>
<path d="M31.408 126.696V135H30.316V128.808L27.556 135H26.788L24.016 128.796V135H22.924V126.696H24.1L27.172 133.56L30.244 126.696H31.408ZM36.1979 135.108C35.5819 135.108 35.0219 134.968 34.5179 134.688C34.0219 134.408 33.6299 134.012 33.3419 133.5C33.0619 132.98 32.9219 132.38 32.9219 131.7C32.9219 131.028 33.0659 130.436 33.3539 129.924C33.6499 129.404 34.0499 129.008 34.5539 128.736C35.0579 128.456 35.6219 128.316 36.2459 128.316C36.8699 128.316 37.4339 128.456 37.9379 128.736C38.4419 129.008 38.8379 129.4 39.1259 129.912C39.4219 130.424 39.5699 131.02 39.5699 131.7C39.5699 132.38 39.4179 132.98 39.1139 133.5C38.8179 134.012 38.4139 134.408 37.9019 134.688C37.3899 134.968 36.8219 135.108 36.1979 135.108ZM36.1979 134.148C36.5899 134.148 36.9579 134.056 37.3019 133.872C37.6459 133.688 37.9219 133.412 38.1299 133.044C38.3459 132.676 38.4539 132.228 38.4539 131.7C38.4539 131.172 38.3499 130.724 38.1419 130.356C37.9339 129.988 37.6619 129.716 37.3259 129.54C36.9899 129.356 36.6259 129.264 36.2339 129.264C35.8339 129.264 35.4659 129.356 35.1299 129.54C34.8019 129.716 34.5379 129.988 34.3379 130.356C34.1379 130.724 34.0379 131.172 34.0379 131.7C34.0379 132.236 34.1339 132.688 34.3259 133.056C34.5259 133.424 34.7899 133.7 35.1179 133.884C35.4459 134.06 35.8059 134.148 36.1979 134.148ZM42.1677 129.492C42.3597 129.116 42.6317 128.824 42.9837 128.616C43.3437 128.408 43.7797 128.304 44.2917 128.304V129.432H44.0037C42.7797 129.432 42.1677 130.096 42.1677 131.424V135H41.0757V128.424H42.1677V129.492ZM51.6223 131.46C51.6223 131.668 51.6103 131.888 51.5863 132.12H46.3303C46.3703 132.768 46.5903 133.276 46.9903 133.644C47.3983 134.004 47.8903 134.184 48.4663 134.184C48.9383 134.184 49.3303 134.076 49.6423 133.86C49.9623 133.636 50.1863 133.34 50.3143 132.972H51.4903C51.3143 133.604 50.9623 134.12 50.4343 134.52C49.9063 134.912 49.2503 135.108 48.4663 135.108C47.8423 135.108 47.2823 134.968 46.7863 134.688C46.2983 134.408 45.9143 134.012 45.6343 133.5C45.3543 132.98 45.2143 132.38 45.2143 131.7C45.2143 131.02 45.3503 130.424 45.6223 129.912C45.8943 129.4 46.2743 129.008 46.7623 128.736C47.2583 128.456 47.8263 128.316 48.4663 128.316C49.0903 128.316 49.6423 128.452 50.1223 128.724C50.6023 128.996 50.9703 129.372 51.2263 129.852C51.4903 130.324 51.6223 130.86 51.6223 131.46ZM50.4943 131.232C50.4943 130.816 50.4023 130.46 50.2183 130.164C50.0343 129.86 49.7823 129.632 49.4623 129.48C49.1503 129.32 48.8023 129.24 48.4183 129.24C47.8663 129.24 47.3943 129.416 47.0023 129.768C46.6183 130.12 46.3983 130.608 46.3423 131.232H50.4943ZM55.9949 131.688C55.9949 131.016 56.1309 130.428 56.4029 129.924C56.6749 129.412 57.0469 129.016 57.5189 128.736C57.9989 128.456 58.5349 128.316 59.1269 128.316C59.6389 128.316 60.1149 128.436 60.5549 128.676C60.9949 128.908 61.3309 129.216 61.5629 129.6V126.12H62.6669V135H61.5629V133.764C61.3469 134.156 61.0269 134.48 60.6029 134.736C60.1789 134.984 59.6829 135.108 59.1149 135.108C58.5309 135.108 57.9989 134.964 57.5189 134.676C57.0469 134.388 56.6749 133.984 56.4029 133.464C56.1309 132.944 55.9949 132.352 55.9949 131.688ZM61.5629 131.7C61.5629 131.204 61.4629 130.772 61.2629 130.404C61.0629 130.036 60.7909 129.756 60.4469 129.564C60.1109 129.364 59.7389 129.264 59.3309 129.264C58.9229 129.264 58.5509 129.36 58.2149 129.552C57.8789 129.744 57.6109 130.024 57.4109 130.392C57.2109 130.76 57.1109 131.192 57.1109 131.688C57.1109 132.192 57.2109 132.632 57.4109 133.008C57.6109 133.376 57.8789 133.66 58.2149 133.86C58.5509 134.052 58.9229 134.148 59.3309 134.148C59.7389 134.148 60.1109 134.052 60.4469 133.86C60.7909 133.66 61.0629 133.376 61.2629 133.008C61.4629 132.632 61.5629 132.196 61.5629 131.7ZM70.5823 131.46C70.5823 131.668 70.5703 131.888 70.5463 132.12H65.2903C65.3303 132.768 65.5503 133.276 65.9503 133.644C66.3583 134.004 66.8503 134.184 67.4263 134.184C67.8983 134.184 68.2903 134.076 68.6023 133.86C68.9223 133.636 69.1463 133.34 69.2743 132.972H70.4503C70.2743 133.604 69.9223 134.12 69.3943 134.52C68.8663 134.912 68.2103 135.108 67.4263 135.108C66.8023 135.108 66.2423 134.968 65.7463 134.688C65.2583 134.408 64.8743 134.012 64.5943 133.5C64.3143 132.98 64.1743 132.38 64.1743 131.7C64.1743 131.02 64.3103 130.424 64.5823 129.912C64.8543 129.4 65.2343 129.008 65.7223 128.736C66.2183 128.456 66.7863 128.316 67.4263 128.316C68.0503 128.316 68.6023 128.452 69.0823 128.724C69.5623 128.996 69.9303 129.372 70.1863 129.852C70.4503 130.324 70.5823 130.86 70.5823 131.46ZM69.4543 131.232C69.4543 130.816 69.3623 130.46 69.1783 130.164C68.9943 129.86 68.7423 129.632 68.4223 129.48C68.1103 129.32 67.7623 129.24 67.3783 129.24C66.8263 129.24 66.3543 129.416 65.9623 129.768C65.5783 130.12 65.3583 130.608 65.3023 131.232H69.4543ZM73.4257 129.324V133.2C73.4257 133.52 73.4937 133.748 73.6297 133.884C73.7657 134.012 74.0017 134.076 74.3377 134.076H75.1417V135H74.1577C73.5497 135 73.0937 134.86 72.7897 134.58C72.4857 134.3 72.3337 133.84 72.3337 133.2V129.324H71.4817V128.424H72.3337V126.768H73.4257V128.424H75.1417V129.324H73.4257ZM76.1268 131.688C76.1268 131.016 76.2628 130.428 76.5348 129.924C76.8068 129.412 77.1788 129.016 77.6508 128.736C78.1308 128.456 78.6628 128.316 79.2468 128.316C79.8228 128.316 80.3228 128.44 80.7468 128.688C81.1708 128.936 81.4868 129.248 81.6948 129.624V128.424H82.7988V135H81.6948V133.776C81.4788 134.16 81.1548 134.48 80.7228 134.736C80.2988 134.984 79.8028 135.108 79.2348 135.108C78.6508 135.108 78.1228 134.964 77.6508 134.676C77.1788 134.388 76.8068 133.984 76.5348 133.464C76.2628 132.944 76.1268 132.352 76.1268 131.688ZM81.6948 131.7C81.6948 131.204 81.5948 130.772 81.3948 130.404C81.1948 130.036 80.9228 129.756 80.5788 129.564C80.2428 129.364 79.8708 129.264 79.4628 129.264C79.0548 129.264 78.6828 129.36 78.3468 129.552C78.0108 129.744 77.7428 130.024 77.5428 130.392C77.3428 130.76 77.2428 131.192 77.2428 131.688C77.2428 132.192 77.3428 132.632 77.5428 133.008C77.7428 133.376 78.0108 133.66 78.3468 133.86C78.6828 134.052 79.0548 134.148 79.4628 134.148C79.8708 134.148 80.2428 134.052 80.5788 133.86C80.9228 133.66 81.1948 133.376 81.3948 133.008C81.5948 132.632 81.6948 132.196 81.6948 131.7ZM85.2782 127.356C85.0702 127.356 84.8942 127.284 84.7502 127.14C84.6062 126.996 84.5342 126.82 84.5342 126.612C84.5342 126.404 84.6062 126.228 84.7502 126.084C84.8942 125.94 85.0702 125.868 85.2782 125.868C85.4782 125.868 85.6462 125.94 85.7822 126.084C85.9262 126.228 85.9982 126.404 85.9982 126.612C85.9982 126.82 85.9262 126.996 85.7822 127.14C85.6462 127.284 85.4782 127.356 85.2782 127.356ZM85.8062 128.424V135H84.7142V128.424H85.8062ZM88.8293 126.12V135H87.7373V126.12H88.8293Z" fill="white"/>
<path d="M98.0626 132.756L100.608 130.21L101.335 130.938L98.0626 134.21L94.7898 130.938L95.517 130.21L98.0626 132.756Z" fill="white"/>
<path d="M22.49 20.1C22.49 19.1387 22.7047 18.28 23.134 17.524C23.5727 16.7587 24.1653 16.166 24.912 15.746C25.668 15.3167 26.5127 15.102 27.446 15.102C28.538 15.102 29.4947 15.382 30.316 15.942C31.1373 16.502 31.7113 17.2767 32.038 18.266H29.784C29.56 17.7993 29.2427 17.4493 28.832 17.216C28.4307 16.9827 27.964 16.866 27.432 16.866C26.8627 16.866 26.354 17.0013 25.906 17.272C25.4673 17.5333 25.122 17.9067 24.87 18.392C24.6273 18.8773 24.506 19.4467 24.506 20.1C24.506 20.744 24.6273 21.3133 24.87 21.808C25.122 22.2933 25.4673 22.6713 25.906 22.942C26.354 23.2033 26.8627 23.334 27.432 23.334C27.964 23.334 28.4307 23.2173 28.832 22.984C29.2427 22.7413 29.56 22.3867 29.784 21.92H32.038C31.7113 22.9187 31.1373 23.698 30.316 24.258C29.504 24.8087 28.5473 25.084 27.446 25.084C26.5127 25.084 25.668 24.874 24.912 24.454C24.1653 24.0247 23.5727 23.432 23.134 22.676C22.7047 21.92 22.49 21.0613 22.49 20.1ZM37.2378 25.126C36.4911 25.126 35.8191 24.9627 35.2218 24.636C34.6244 24.3 34.1531 23.8287 33.8078 23.222C33.4718 22.6153 33.3038 21.9153 33.3038 21.122C33.3038 20.3287 33.4764 19.6287 33.8218 19.022C34.1764 18.4153 34.6571 17.9487 35.2638 17.622C35.8704 17.286 36.5471 17.118 37.2938 17.118C38.0404 17.118 38.7171 17.286 39.3238 17.622C39.9304 17.9487 40.4064 18.4153 40.7518 19.022C41.1064 19.6287 41.2838 20.3287 41.2838 21.122C41.2838 21.9153 41.1018 22.6153 40.7378 23.222C40.3831 23.8287 39.8978 24.3 39.2818 24.636C38.6751 24.9627 37.9938 25.126 37.2378 25.126ZM37.2378 23.418C37.5924 23.418 37.9238 23.334 38.2318 23.166C38.5491 22.9887 38.8011 22.7273 38.9878 22.382C39.1744 22.0367 39.2678 21.6167 39.2678 21.122C39.2678 20.3847 39.0718 19.82 38.6798 19.428C38.2971 19.0267 37.8258 18.826 37.2658 18.826C36.7058 18.826 36.2344 19.0267 35.8518 19.428C35.4784 19.82 35.2918 20.3847 35.2918 21.122C35.2918 21.8593 35.4738 22.4287 35.8378 22.83C36.2111 23.222 36.6778 23.418 37.2378 23.418ZM44.7632 18.448C45.0152 18.0373 45.3418 17.7153 45.7432 17.482C46.1538 17.2487 46.6205 17.132 47.1432 17.132V19.19H46.6252C46.0092 19.19 45.5425 19.3347 45.2252 19.624C44.9172 19.9133 44.7632 20.4173 44.7632 21.136V25H42.8032V17.244H44.7632V18.448ZM51.989 25.126C51.2423 25.126 50.5703 24.9627 49.973 24.636C49.3757 24.3 48.9043 23.8287 48.559 23.222C48.223 22.6153 48.055 21.9153 48.055 21.122C48.055 20.3287 48.2277 19.6287 48.573 19.022C48.9277 18.4153 49.4083 17.9487 50.015 17.622C50.6217 17.286 51.2983 17.118 52.045 17.118C52.7917 17.118 53.4683 17.286 54.075 17.622C54.6817 17.9487 55.1577 18.4153 55.503 19.022C55.8577 19.6287 56.035 20.3287 56.035 21.122C56.035 21.9153 55.853 22.6153 55.489 23.222C55.1343 23.8287 54.649 24.3 54.033 24.636C53.4263 24.9627 52.745 25.126 51.989 25.126ZM51.989 23.418C52.3437 23.418 52.675 23.334 52.983 23.166C53.3003 22.9887 53.5523 22.7273 53.739 22.382C53.9257 22.0367 54.019 21.6167 54.019 21.122C54.019 20.3847 53.823 19.82 53.431 19.428C53.0483 19.0267 52.577 18.826 52.017 18.826C51.457 18.826 50.9857 19.0267 50.603 19.428C50.2297 19.82 50.043 20.3847 50.043 21.122C50.043 21.8593 50.225 22.4287 50.589 22.83C50.9623 23.222 51.429 23.418 51.989 23.418ZM61.8524 17.132C62.7764 17.132 63.5231 17.426 64.0924 18.014C64.6617 18.5927 64.9464 19.4047 64.9464 20.45V25H62.9864V20.716C62.9864 20.1 62.8324 19.6287 62.5244 19.302C62.2164 18.966 61.7964 18.798 61.2644 18.798C60.7231 18.798 60.2937 18.966 59.9764 19.302C59.6684 19.6287 59.5144 20.1 59.5144 20.716V25H57.5544V17.244H59.5144V18.21C59.7757 17.874 60.1071 17.6127 60.5084 17.426C60.9191 17.23 61.3671 17.132 61.8524 17.132ZM66.3879 21.094C66.3879 20.31 66.5419 19.6147 66.8499 19.008C67.1672 18.4013 67.5919 17.9347 68.1239 17.608C68.6652 17.2813 69.2672 17.118 69.9299 17.118C70.5086 17.118 71.0126 17.2347 71.4419 17.468C71.8806 17.7013 72.2306 17.9953 72.4919 18.35V17.244H74.4659V25H72.4919V23.866C72.2399 24.23 71.8899 24.5333 71.4419 24.776C71.0032 25.0093 70.4946 25.126 69.9159 25.126C69.2626 25.126 68.6652 24.958 68.1239 24.622C67.5919 24.286 67.1672 23.8147 66.8499 23.208C66.5419 22.592 66.3879 21.8873 66.3879 21.094ZM72.4919 21.122C72.4919 20.646 72.3986 20.24 72.2119 19.904C72.0252 19.5587 71.7732 19.2973 71.4559 19.12C71.1386 18.9333 70.7979 18.84 70.4339 18.84C70.0699 18.84 69.7339 18.9287 69.4259 19.106C69.1179 19.2833 68.8659 19.5447 68.6699 19.89C68.4832 20.226 68.3899 20.6273 68.3899 21.094C68.3899 21.5607 68.4832 21.9713 68.6699 22.326C68.8659 22.6713 69.1179 22.9373 69.4259 23.124C69.7432 23.3107 70.0792 23.404 70.4339 23.404C70.7979 23.404 71.1386 23.3153 71.4559 23.138C71.7732 22.9513 72.0252 22.69 72.2119 22.354C72.3986 22.0087 72.4919 21.598 72.4919 21.122ZM79.6959 23.194L81.6559 17.244H83.7419L80.8719 25H78.4919L75.6359 17.244H77.7359L79.6959 23.194ZM85.9184 16.32C85.5731 16.32 85.2837 16.2127 85.0504 15.998C84.8264 15.774 84.7144 15.4987 84.7144 15.172C84.7144 14.8453 84.8264 14.5747 85.0504 14.36C85.2837 14.136 85.5731 14.024 85.9184 14.024C86.2637 14.024 86.5484 14.136 86.7724 14.36C87.0057 14.5747 87.1224 14.8453 87.1224 15.172C87.1224 15.4987 87.0057 15.774 86.7724 15.998C86.5484 16.2127 86.2637 16.32 85.9184 16.32ZM86.8844 17.244V25H84.9244V17.244H86.8844ZM90.8625 18.448C91.1145 18.0373 91.4412 17.7153 91.8425 17.482C92.2532 17.2487 92.7199 17.132 93.2425 17.132V19.19H92.7245C92.1085 19.19 91.6419 19.3347 91.3245 19.624C91.0165 19.9133 90.8625 20.4173 90.8625 21.136V25H88.9025V17.244H90.8625V18.448ZM101.966 17.244V25H99.9924V24.02C99.7404 24.356 99.409 24.622 98.9984 24.818C98.597 25.0047 98.1584 25.098 97.6824 25.098C97.0757 25.098 96.539 24.972 96.0724 24.72C95.6057 24.4587 95.237 24.0807 94.9664 23.586C94.705 23.082 94.5744 22.4847 94.5744 21.794V17.244H96.5344V21.514C96.5344 22.13 96.6884 22.606 96.9964 22.942C97.3044 23.2687 97.7244 23.432 98.2564 23.432C98.7977 23.432 99.2224 23.2687 99.5304 22.942C99.8384 22.606 99.9924 22.13 99.9924 21.514V17.244H101.966ZM106.95 25.126C106.315 25.126 105.746 25.014 105.242 24.79C104.738 24.5567 104.337 24.244 104.038 23.852C103.749 23.46 103.59 23.026 103.562 22.55H105.536C105.573 22.8487 105.718 23.096 105.97 23.292C106.231 23.488 106.553 23.586 106.936 23.586C107.309 23.586 107.599 23.5113 107.804 23.362C108.019 23.2127 108.126 23.0213 108.126 22.788C108.126 22.536 107.995 22.3493 107.734 22.228C107.482 22.0973 107.076 21.9573 106.516 21.808C105.937 21.668 105.461 21.5233 105.088 21.374C104.724 21.2247 104.407 20.996 104.136 20.688C103.875 20.38 103.744 19.9647 103.744 19.442C103.744 19.0127 103.865 18.6207 104.108 18.266C104.36 17.9113 104.715 17.6313 105.172 17.426C105.639 17.2207 106.185 17.118 106.81 17.118C107.734 17.118 108.471 17.3513 109.022 17.818C109.573 18.2753 109.876 18.896 109.932 19.68H108.056C108.028 19.372 107.897 19.1293 107.664 18.952C107.44 18.7653 107.137 18.672 106.754 18.672C106.399 18.672 106.124 18.7373 105.928 18.868C105.741 18.9987 105.648 19.1807 105.648 19.414C105.648 19.6753 105.779 19.876 106.04 20.016C106.301 20.1467 106.707 20.282 107.258 20.422C107.818 20.562 108.28 20.7067 108.644 20.856C109.008 21.0053 109.321 21.2387 109.582 21.556C109.853 21.864 109.993 22.2747 110.002 22.788C110.002 23.236 109.876 23.6373 109.624 23.992C109.381 24.3467 109.027 24.6267 108.56 24.832C108.103 25.028 107.566 25.126 106.95 25.126ZM117.07 23.446H120.29V25H115.11V15.228H117.07V23.446ZM121.114 21.094C121.114 20.31 121.268 19.6147 121.576 19.008C121.893 18.4013 122.318 17.9347 122.85 17.608C123.391 17.2813 123.993 17.118 124.656 17.118C125.234 17.118 125.738 17.2347 126.168 17.468C126.606 17.7013 126.956 17.9953 127.218 18.35V17.244H129.192V25H127.218V23.866C126.966 24.23 126.616 24.5333 126.168 24.776C125.729 25.0093 125.22 25.126 124.642 25.126C123.988 25.126 123.391 24.958 122.85 24.622C122.318 24.286 121.893 23.8147 121.576 23.208C121.268 22.592 121.114 21.8873 121.114 21.094ZM127.218 21.122C127.218 20.646 127.124 20.24 126.938 19.904C126.751 19.5587 126.499 19.2973 126.182 19.12C125.864 18.9333 125.524 18.84 125.16 18.84C124.796 18.84 124.46 18.9287 124.152 19.106C123.844 19.2833 123.592 19.5447 123.396 19.89C123.209 20.226 123.116 20.6273 123.116 21.094C123.116 21.5607 123.209 21.9713 123.396 22.326C123.592 22.6713 123.844 22.9373 124.152 23.124C124.469 23.3107 124.805 23.404 125.16 23.404C125.524 23.404 125.864 23.3153 126.182 23.138C126.499 22.9513 126.751 22.69 126.938 22.354C127.124 22.0087 127.218 21.598 127.218 21.122ZM133.469 18.854V22.606C133.469 22.8673 133.53 23.0587 133.651 23.18C133.782 23.292 133.997 23.348 134.295 23.348H135.205V25H133.973C132.321 25 131.495 24.1973 131.495 22.592V18.854H130.571V17.244H131.495V15.326H133.469V17.244H135.205V18.854H133.469ZM143.907 20.954C143.907 21.234 143.888 21.486 143.851 21.71H138.181C138.228 22.27 138.424 22.7087 138.769 23.026C139.114 23.3433 139.539 23.502 140.043 23.502C140.771 23.502 141.289 23.1893 141.597 22.564H143.711C143.487 23.3107 143.058 23.9267 142.423 24.412C141.788 24.888 141.009 25.126 140.085 25.126C139.338 25.126 138.666 24.9627 138.069 24.636C137.481 24.3 137.019 23.8287 136.683 23.222C136.356 22.6153 136.193 21.9153 136.193 21.122C136.193 20.3193 136.356 19.6147 136.683 19.008C137.01 18.4013 137.467 17.9347 138.055 17.608C138.643 17.2813 139.32 17.118 140.085 17.118C140.822 17.118 141.48 17.2767 142.059 17.594C142.647 17.9113 143.1 18.364 143.417 18.952C143.744 19.5307 143.907 20.198 143.907 20.954ZM141.877 20.394C141.868 19.89 141.686 19.4887 141.331 19.19C140.976 18.882 140.542 18.728 140.029 18.728C139.544 18.728 139.133 18.8773 138.797 19.176C138.47 19.4653 138.27 19.8713 138.195 20.394H141.877ZM148.387 25.126C147.752 25.126 147.183 25.014 146.679 24.79C146.175 24.5567 145.774 24.244 145.475 23.852C145.186 23.46 145.027 23.026 144.999 22.55H146.973C147.01 22.8487 147.155 23.096 147.407 23.292C147.668 23.488 147.99 23.586 148.373 23.586C148.746 23.586 149.036 23.5113 149.241 23.362C149.456 23.2127 149.563 23.0213 149.563 22.788C149.563 22.536 149.432 22.3493 149.171 22.228C148.919 22.0973 148.513 21.9573 147.953 21.808C147.374 21.668 146.898 21.5233 146.525 21.374C146.161 21.2247 145.844 20.996 145.573 20.688C145.312 20.38 145.181 19.9647 145.181 19.442C145.181 19.0127 145.302 18.6207 145.545 18.266C145.797 17.9113 146.152 17.6313 146.609 17.426C147.076 17.2207 147.622 17.118 148.247 17.118C149.171 17.118 149.908 17.3513 150.459 17.818C151.01 18.2753 151.313 18.896 151.369 19.68H149.493C149.465 19.372 149.334 19.1293 149.101 18.952C148.877 18.7653 148.574 18.672 148.191 18.672C147.836 18.672 147.561 18.7373 147.365 18.868C147.178 18.9987 147.085 19.1807 147.085 19.414C147.085 19.6753 147.216 19.876 147.477 20.016C147.738 20.1467 148.144 20.282 148.695 20.422C149.255 20.562 149.717 20.7067 150.081 20.856C150.445 21.0053 150.758 21.2387 151.019 21.556C151.29 21.864 151.43 22.2747 151.439 22.788C151.439 23.236 151.313 23.6373 151.061 23.992C150.818 24.3467 150.464 24.6267 149.997 24.832C149.54 25.028 149.003 25.126 148.387 25.126ZM155.412 18.854V22.606C155.412 22.8673 155.472 23.0587 155.594 23.18C155.724 23.292 155.939 23.348 156.238 23.348H157.148V25H155.916C154.264 25 153.438 24.1973 153.438 22.592V18.854H152.514V17.244H153.438V15.326H155.412V17.244H157.148V18.854H155.412Z" fill="white"/>
<path d="M28.288 50.66V51.776H26.068V59H24.7V51.776H22.468V50.66H28.288ZM29.2874 55.664C29.2874 55 29.4234 54.412 29.6954 53.9C29.9754 53.388 30.3514 52.992 30.8234 52.712C31.3034 52.424 31.8314 52.28 32.4074 52.28C32.9274 52.28 33.3794 52.384 33.7634 52.592C34.1554 52.792 34.4674 53.044 34.6994 53.348V52.388H36.0794V59H34.6994V58.016C34.4674 58.328 34.1514 58.588 33.7514 58.796C33.3514 59.004 32.8954 59.108 32.3834 59.108C31.8154 59.108 31.2954 58.964 30.8234 58.676C30.3514 58.38 29.9754 57.972 29.6954 57.452C29.4234 56.924 29.2874 56.328 29.2874 55.664ZM34.6994 55.688C34.6994 55.232 34.6034 54.836 34.4114 54.5C34.2274 54.164 33.9834 53.908 33.6794 53.732C33.3754 53.556 33.0474 53.468 32.6954 53.468C32.3434 53.468 32.0154 53.556 31.7114 53.732C31.4074 53.9 31.1594 54.152 30.9674 54.488C30.7834 54.816 30.6914 55.208 30.6914 55.664C30.6914 56.12 30.7834 56.52 30.9674 56.864C31.1594 57.208 31.4074 57.472 31.7114 57.656C32.0234 57.832 32.3514 57.92 32.6954 57.92C33.0474 57.92 33.3754 57.832 33.6794 57.656C33.9834 57.48 34.2274 57.224 34.4114 56.888C34.6034 56.544 34.6994 56.144 34.6994 55.688ZM45.9503 52.28C46.4703 52.28 46.9343 52.388 47.3423 52.604C47.7583 52.82 48.0823 53.14 48.3143 53.564C48.5543 53.988 48.6743 54.5 48.6743 55.1V59H47.3183V55.304C47.3183 54.712 47.1703 54.26 46.8743 53.948C46.5783 53.628 46.1743 53.468 45.6623 53.468C45.1503 53.468 44.7423 53.628 44.4383 53.948C44.1423 54.26 43.9943 54.712 43.9943 55.304V59H42.6383V55.304C42.6383 54.712 42.4903 54.26 42.1943 53.948C41.8983 53.628 41.4943 53.468 40.9823 53.468C40.4703 53.468 40.0623 53.628 39.7583 53.948C39.4623 54.26 39.3143 54.712 39.3143 55.304V59H37.9463V52.388H39.3143V53.144C39.5383 52.872 39.8223 52.66 40.1663 52.508C40.5103 52.356 40.8783 52.28 41.2703 52.28C41.7983 52.28 42.2703 52.392 42.6863 52.616C43.1023 52.84 43.4223 53.164 43.6463 53.588C43.8463 53.188 44.1583 52.872 44.5823 52.64C45.0063 52.4 45.4623 52.28 45.9503 52.28ZM51.181 51.512C50.933 51.512 50.725 51.428 50.557 51.26C50.389 51.092 50.305 50.884 50.305 50.636C50.305 50.388 50.389 50.18 50.557 50.012C50.725 49.844 50.933 49.76 51.181 49.76C51.421 49.76 51.625 49.844 51.793 50.012C51.961 50.18 52.045 50.388 52.045 50.636C52.045 50.884 51.961 51.092 51.793 51.26C51.625 51.428 51.421 51.512 51.181 51.512ZM51.853 52.388V59H50.485V52.388H51.853ZM55.0871 50.12V59H53.7191V50.12H55.0871ZM66.9923 59H65.6243L61.5083 52.772V59H60.1403V50.648H61.5083L65.6243 56.864V50.648H66.9923V59ZM68.4028 55.664C68.4028 55 68.5388 54.412 68.8108 53.9C69.0908 53.388 69.4668 52.992 69.9388 52.712C70.4188 52.424 70.9468 52.28 71.5228 52.28C72.0428 52.28 72.4948 52.384 72.8788 52.592C73.2708 52.792 73.5828 53.044 73.8148 53.348V52.388H75.1948V59H73.8148V58.016C73.5828 58.328 73.2668 58.588 72.8668 58.796C72.4668 59.004 72.0108 59.108 71.4988 59.108C70.9308 59.108 70.4108 58.964 69.9388 58.676C69.4668 58.38 69.0908 57.972 68.8108 57.452C68.5388 56.924 68.4028 56.328 68.4028 55.664ZM73.8148 55.688C73.8148 55.232 73.7188 54.836 73.5268 54.5C73.3428 54.164 73.0988 53.908 72.7948 53.732C72.4908 53.556 72.1628 53.468 71.8108 53.468C71.4588 53.468 71.1308 53.556 70.8268 53.732C70.5228 53.9 70.2748 54.152 70.0828 54.488C69.8988 54.816 69.8068 55.208 69.8068 55.664C69.8068 56.12 69.8988 56.52 70.0828 56.864C70.2748 57.208 70.5228 57.472 70.8268 57.656C71.1388 57.832 71.4668 57.92 71.8108 57.92C72.1628 57.92 72.4908 57.832 72.7948 57.656C73.0988 57.48 73.3428 57.224 73.5268 56.888C73.7188 56.544 73.8148 56.144 73.8148 55.688ZM76.6056 55.664C76.6056 55 76.7416 54.412 77.0136 53.9C77.2936 53.388 77.6696 52.992 78.1416 52.712C78.6216 52.424 79.1536 52.28 79.7376 52.28C80.1696 52.28 80.5936 52.376 81.0096 52.568C81.4336 52.752 81.7696 53 82.0176 53.312V50.12H83.3976V59H82.0176V58.004C81.7936 58.324 81.4816 58.588 81.0816 58.796C80.6896 59.004 80.2376 59.108 79.7256 59.108C79.1496 59.108 78.6216 58.964 78.1416 58.676C77.6696 58.38 77.2936 57.972 77.0136 57.452C76.7416 56.924 76.6056 56.328 76.6056 55.664ZM82.0176 55.688C82.0176 55.232 81.9216 54.836 81.7296 54.5C81.5456 54.164 81.3016 53.908 80.9976 53.732C80.6936 53.556 80.3656 53.468 80.0136 53.468C79.6616 53.468 79.3336 53.556 79.0296 53.732C78.7256 53.9 78.4776 54.152 78.2856 54.488C78.1016 54.816 78.0096 55.208 78.0096 55.664C78.0096 56.12 78.1016 56.52 78.2856 56.864C78.4776 57.208 78.7256 57.472 79.0296 57.656C79.3416 57.832 79.6696 57.92 80.0136 57.92C80.3656 57.92 80.6936 57.832 80.9976 57.656C81.3016 57.48 81.5456 57.224 81.7296 56.888C81.9216 56.544 82.0176 56.144 82.0176 55.688ZM91.2524 52.388V59H89.8844V58.22C89.6684 58.492 89.3844 58.708 89.0324 58.868C88.6884 59.02 88.3204 59.096 87.9284 59.096C87.4084 59.096 86.9404 58.988 86.5244 58.772C86.1164 58.556 85.7924 58.236 85.5524 57.812C85.3204 57.388 85.2044 56.876 85.2044 56.276V52.388H86.5604V56.072C86.5604 56.664 86.7084 57.12 87.0044 57.44C87.3004 57.752 87.7044 57.908 88.2164 57.908C88.7284 57.908 89.1324 57.752 89.4284 57.44C89.7324 57.12 89.8844 56.664 89.8844 56.072V52.388H91.2524ZM94.6273 57.356L93.1753 60.668H92.2873L93.1393 57.356H94.6273ZM98.6238 54.812C98.6238 53.996 98.8118 53.264 99.1878 52.616C99.5718 51.968 100.088 51.464 100.736 51.104C101.392 50.736 102.108 50.552 102.884 50.552C103.772 50.552 104.56 50.772 105.248 51.212C105.944 51.644 106.448 52.26 106.76 53.06H105.116C104.9 52.62 104.6 52.292 104.216 52.076C103.832 51.86 103.388 51.752 102.884 51.752C102.332 51.752 101.84 51.876 101.408 52.124C100.976 52.372 100.636 52.728 100.388 53.192C100.148 53.656 100.028 54.196 100.028 54.812C100.028 55.428 100.148 55.968 100.388 56.432C100.636 56.896 100.976 57.256 101.408 57.512C101.84 57.76 102.332 57.884 102.884 57.884C103.388 57.884 103.832 57.776 104.216 57.56C104.6 57.344 104.9 57.016 105.116 56.576H106.76C106.448 57.376 105.944 57.992 105.248 58.424C104.56 58.856 103.772 59.072 102.884 59.072C102.1 59.072 101.384 58.892 100.736 58.532C100.088 58.164 99.5718 57.656 99.1878 57.008C98.8118 56.36 98.6238 55.628 98.6238 54.812ZM111.851 52.28C112.355 52.28 112.803 52.388 113.195 52.604C113.595 52.82 113.907 53.14 114.131 53.564C114.363 53.988 114.479 54.5 114.479 55.1V59H113.123V55.304C113.123 54.712 112.975 54.26 112.679 53.948C112.383 53.628 111.979 53.468 111.467 53.468C110.955 53.468 110.547 53.628 110.243 53.948C109.947 54.26 109.799 54.712 109.799 55.304V59H108.431V50.12H109.799V53.156C110.031 52.876 110.323 52.66 110.675 52.508C111.035 52.356 111.427 52.28 111.851 52.28ZM122.354 55.532C122.354 55.78 122.338 56.004 122.306 56.204H117.254C117.294 56.732 117.49 57.156 117.842 57.476C118.194 57.796 118.626 57.956 119.138 57.956C119.874 57.956 120.394 57.648 120.698 57.032H122.174C121.974 57.64 121.61 58.14 121.082 58.532C120.562 58.916 119.914 59.108 119.138 59.108C118.506 59.108 117.938 58.968 117.434 58.688C116.938 58.4 116.546 58 116.258 57.488C115.978 56.968 115.838 56.368 115.838 55.688C115.838 55.008 115.974 54.412 116.246 53.9C116.526 53.38 116.914 52.98 117.41 52.7C117.914 52.42 118.49 52.28 119.138 52.28C119.762 52.28 120.318 52.416 120.806 52.688C121.294 52.96 121.674 53.344 121.946 53.84C122.218 54.328 122.354 54.892 122.354 55.532ZM120.926 55.1C120.918 54.596 120.738 54.192 120.386 53.888C120.034 53.584 119.598 53.432 119.078 53.432C118.606 53.432 118.202 53.584 117.866 53.888C117.53 54.184 117.33 54.588 117.266 55.1H120.926ZM127.106 52.28C127.626 52.28 128.09 52.388 128.498 52.604C128.914 52.82 129.238 53.14 129.47 53.564C129.702 53.988 129.818 54.5 129.818 55.1V59H128.462V55.304C128.462 54.712 128.314 54.26 128.018 53.948C127.722 53.628 127.318 53.468 126.806 53.468C126.294 53.468 125.886 53.628 125.582 53.948C125.286 54.26 125.138 54.712 125.138 55.304V59H123.77V52.388H125.138V53.144C125.362 52.872 125.646 52.66 125.99 52.508C126.342 52.356 126.714 52.28 127.106 52.28ZM134.969 52.28C135.489 52.28 135.953 52.388 136.361 52.604C136.777 52.82 137.101 53.14 137.333 53.564C137.565 53.988 137.681 54.5 137.681 55.1V59H136.325V55.304C136.325 54.712 136.177 54.26 135.881 53.948C135.585 53.628 135.181 53.468 134.669 53.468C134.157 53.468 133.749 53.628 133.445 53.948C133.149 54.26 133.001 54.712 133.001 55.304V59H131.633V52.388H133.001V53.144C133.225 52.872 133.509 52.66 133.853 52.508C134.205 52.356 134.577 52.28 134.969 52.28ZM139.04 55.664C139.04 55 139.176 54.412 139.448 53.9C139.728 53.388 140.104 52.992 140.576 52.712C141.056 52.424 141.584 52.28 142.16 52.28C142.68 52.28 143.132 52.384 143.516 52.592C143.908 52.792 144.22 53.044 144.452 53.348V52.388H145.832V59H144.452V58.016C144.22 58.328 143.904 58.588 143.504 58.796C143.104 59.004 142.648 59.108 142.136 59.108C141.568 59.108 141.048 58.964 140.576 58.676C140.104 58.38 139.728 57.972 139.448 57.452C139.176 56.924 139.04 56.328 139.04 55.664ZM144.452 55.688C144.452 55.232 144.356 54.836 144.164 54.5C143.98 54.164 143.736 53.908 143.432 53.732C143.128 53.556 142.8 53.468 142.448 53.468C142.096 53.468 141.768 53.556 141.464 53.732C141.16 53.9 140.912 54.152 140.72 54.488C140.536 54.816 140.444 55.208 140.444 55.664C140.444 56.12 140.536 56.52 140.72 56.864C140.912 57.208 141.16 57.472 141.464 57.656C141.776 57.832 142.104 57.92 142.448 57.92C142.8 57.92 143.128 57.832 143.432 57.656C143.736 57.48 143.98 57.224 144.164 56.888C144.356 56.544 144.452 56.144 144.452 55.688ZM148.395 51.512C148.147 51.512 147.939 51.428 147.771 51.26C147.603 51.092 147.519 50.884 147.519 50.636C147.519 50.388 147.603 50.18 147.771 50.012C147.939 49.844 148.147 49.76 148.395 49.76C148.635 49.76 148.839 49.844 149.007 50.012C149.175 50.18 149.259 50.388 149.259 50.636C149.259 50.884 149.175 51.092 149.007 51.26C148.839 51.428 148.635 51.512 148.395 51.512ZM149.067 52.388V59H147.699V52.388H149.067Z" fill="#9A9EAE"/>
<path d="M22.444 74.812C22.444 73.996 22.632 73.264 23.008 72.616C23.392 71.968 23.908 71.464 24.556 71.104C25.212 70.736 25.928 70.552 26.704 70.552C27.592 70.552 28.38 70.772 29.068 71.212C29.764 71.644 30.268 72.26 30.58 73.06H28.936C28.72 72.62 28.42 72.292 28.036 72.076C27.652 71.86 27.208 71.752 26.704 71.752C26.152 71.752 25.66 71.876 25.228 72.124C24.796 72.372 24.456 72.728 24.208 73.192C23.968 73.656 23.848 74.196 23.848 74.812C23.848 75.428 23.968 75.968 24.208 76.432C24.456 76.896 24.796 77.256 25.228 77.512C25.66 77.76 26.152 77.884 26.704 77.884C27.208 77.884 27.652 77.776 28.036 77.56C28.42 77.344 28.72 77.016 28.936 76.576H30.58C30.268 77.376 29.764 77.992 29.068 78.424C28.38 78.856 27.592 79.072 26.704 79.072C25.92 79.072 25.204 78.892 24.556 78.532C23.908 78.164 23.392 77.656 23.008 77.008C22.632 76.36 22.444 75.628 22.444 74.812ZM35.1192 79.108C34.4952 79.108 33.9312 78.968 33.4272 78.688C32.9232 78.4 32.5272 78 32.2392 77.488C31.9512 76.968 31.8072 76.368 31.8072 75.688C31.8072 75.016 31.9552 74.42 32.2512 73.9C32.5472 73.38 32.9512 72.98 33.4632 72.7C33.9752 72.42 34.5472 72.28 35.1792 72.28C35.8112 72.28 36.3832 72.42 36.8952 72.7C37.4072 72.98 37.8112 73.38 38.1072 73.9C38.4032 74.42 38.5512 75.016 38.5512 75.688C38.5512 76.36 38.3993 76.956 38.0953 77.476C37.7913 77.996 37.3753 78.4 36.8473 78.688C36.3272 78.968 35.7512 79.108 35.1192 79.108ZM35.1192 77.92C35.4712 77.92 35.7992 77.836 36.1033 77.668C36.4153 77.5 36.6673 77.248 36.8592 76.912C37.0512 76.576 37.1472 76.168 37.1472 75.688C37.1472 75.208 37.0552 74.804 36.8712 74.476C36.6872 74.14 36.4432 73.888 36.1392 73.72C35.8353 73.552 35.5072 73.468 35.1552 73.468C34.8032 73.468 34.4752 73.552 34.1712 73.72C33.8752 73.888 33.6392 74.14 33.4632 74.476C33.2872 74.804 33.1992 75.208 33.1992 75.688C33.1992 76.4 33.3792 76.952 33.7392 77.344C34.1072 77.728 34.5672 77.92 35.1192 77.92ZM43.3096 72.28C43.8296 72.28 44.2936 72.388 44.7016 72.604C45.1176 72.82 45.4416 73.14 45.6736 73.564C45.9056 73.988 46.0216 74.5 46.0216 75.1V79H44.6656V75.304C44.6656 74.712 44.5176 74.26 44.2216 73.948C43.9256 73.628 43.5216 73.468 43.0096 73.468C42.4976 73.468 42.0896 73.628 41.7856 73.948C41.4896 74.26 41.3416 74.712 41.3416 75.304V79H39.9736V72.388H41.3416V73.144C41.5656 72.872 41.8496 72.66 42.1936 72.508C42.5456 72.356 42.9176 72.28 43.3096 72.28ZM50.6086 73.504H49.3846V79H48.0046V73.504H47.2246V72.388H48.0046V71.92C48.0046 71.16 48.2046 70.608 48.6046 70.264C49.0126 69.912 49.6486 69.736 50.5126 69.736V70.876C50.0966 70.876 49.8046 70.956 49.6366 71.116C49.4686 71.268 49.3846 71.536 49.3846 71.92V72.388H50.6086V73.504ZM52.5869 71.512C52.3389 71.512 52.1309 71.428 51.9629 71.26C51.7949 71.092 51.7109 70.884 51.7109 70.636C51.7109 70.388 51.7949 70.18 51.9629 70.012C52.1309 69.844 52.3389 69.76 52.5869 69.76C52.8269 69.76 53.0309 69.844 53.1989 70.012C53.3669 70.18 53.4509 70.388 53.4509 70.636C53.4509 70.884 53.3669 71.092 53.1989 71.26C53.0309 71.428 52.8269 71.512 52.5869 71.512ZM53.2589 72.388V79H51.8909V72.388H53.2589ZM56.493 73.348C56.693 73.012 56.957 72.752 57.285 72.568C57.621 72.376 58.017 72.28 58.473 72.28V73.696H58.125C57.589 73.696 57.181 73.832 56.901 74.104C56.629 74.376 56.493 74.848 56.493 75.52V79H55.125V72.388H56.493V73.348ZM67.8045 72.28C68.3245 72.28 68.7885 72.388 69.1965 72.604C69.6125 72.82 69.9365 73.14 70.1685 73.564C70.4085 73.988 70.5285 74.5 70.5285 75.1V79H69.1725V75.304C69.1725 74.712 69.0245 74.26 68.7285 73.948C68.4325 73.628 68.0285 73.468 67.5165 73.468C67.0045 73.468 66.5965 73.628 66.2925 73.948C65.9965 74.26 65.8485 74.712 65.8485 75.304V79H64.4925V75.304C64.4925 74.712 64.3445 74.26 64.0485 73.948C63.7525 73.628 63.3485 73.468 62.8365 73.468C62.3245 73.468 61.9165 73.628 61.6125 73.948C61.3165 74.26 61.1685 74.712 61.1685 75.304V79H59.8005V72.388H61.1685V73.144C61.3925 72.872 61.6765 72.66 62.0205 72.508C62.3645 72.356 62.7325 72.28 63.1245 72.28C63.6525 72.28 64.1245 72.392 64.5405 72.616C64.9565 72.84 65.2765 73.164 65.5005 73.588C65.7005 73.188 66.0125 72.872 66.4365 72.64C66.8605 72.4 67.3165 72.28 67.8045 72.28ZM78.3992 75.532C78.3992 75.78 78.3832 76.004 78.3512 76.204H73.2992C73.3392 76.732 73.5352 77.156 73.8872 77.476C74.2392 77.796 74.6712 77.956 75.1832 77.956C75.9192 77.956 76.4392 77.648 76.7432 77.032H78.2192C78.0192 77.64 77.6552 78.14 77.1272 78.532C76.6072 78.916 75.9592 79.108 75.1832 79.108C74.5512 79.108 73.9832 78.968 73.4792 78.688C72.9832 78.4 72.5912 78 72.3032 77.488C72.0232 76.968 71.8832 76.368 71.8832 75.688C71.8832 75.008 72.0192 74.412 72.2912 73.9C72.5712 73.38 72.9592 72.98 73.4552 72.7C73.9592 72.42 74.5352 72.28 75.1832 72.28C75.8072 72.28 76.3632 72.416 76.8512 72.688C77.3392 72.96 77.7192 73.344 77.9912 73.84C78.2632 74.328 78.3992 74.892 78.3992 75.532ZM76.9712 75.1C76.9632 74.596 76.7832 74.192 76.4312 73.888C76.0792 73.584 75.6432 73.432 75.1232 73.432C74.6512 73.432 74.2472 73.584 73.9112 73.888C73.5752 74.184 73.3752 74.588 73.3112 75.1H76.9712ZM79.3595 75.664C79.3595 75 79.4955 74.412 79.7675 73.9C80.0475 73.388 80.4235 72.992 80.8955 72.712C81.3755 72.424 81.9075 72.28 82.4915 72.28C82.9235 72.28 83.3475 72.376 83.7635 72.568C84.1875 72.752 84.5235 73 84.7715 73.312V70.12H86.1515V79H84.7715V78.004C84.5475 78.324 84.2355 78.588 83.8355 78.796C83.4435 79.004 82.9915 79.108 82.4795 79.108C81.9035 79.108 81.3755 78.964 80.8955 78.676C80.4235 78.38 80.0475 77.972 79.7675 77.452C79.4955 76.924 79.3595 76.328 79.3595 75.664ZM84.7715 75.688C84.7715 75.232 84.6755 74.836 84.4835 74.5C84.2995 74.164 84.0555 73.908 83.7515 73.732C83.4475 73.556 83.1195 73.468 82.7675 73.468C82.4155 73.468 82.0875 73.556 81.7835 73.732C81.4795 73.9 81.2315 74.152 81.0395 74.488C80.8555 74.816 80.7635 75.208 80.7635 75.664C80.7635 76.12 80.8555 76.52 81.0395 76.864C81.2315 77.208 81.4795 77.472 81.7835 77.656C82.0955 77.832 82.4235 77.92 82.7675 77.92C83.1195 77.92 83.4475 77.832 83.7515 77.656C84.0555 77.48 84.2995 77.224 84.4835 76.888C84.6755 76.544 84.7715 76.144 84.7715 75.688ZM90.7495 74.812C90.7495 73.996 90.9375 73.264 91.3135 72.616C91.6975 71.968 92.2135 71.464 92.8615 71.104C93.5175 70.736 94.2335 70.552 95.0095 70.552C95.8975 70.552 96.6855 70.772 97.3735 71.212C98.0695 71.644 98.5735 72.26 98.8855 73.06H97.2415C97.0255 72.62 96.7255 72.292 96.3415 72.076C95.9575 71.86 95.5135 71.752 95.0095 71.752C94.4575 71.752 93.9655 71.876 93.5335 72.124C93.1015 72.372 92.7615 72.728 92.5135 73.192C92.2735 73.656 92.1535 74.196 92.1535 74.812C92.1535 75.428 92.2735 75.968 92.5135 76.432C92.7615 76.896 93.1015 77.256 93.5335 77.512C93.9655 77.76 94.4575 77.884 95.0095 77.884C95.5135 77.884 95.9575 77.776 96.3415 77.56C96.7255 77.344 97.0255 77.016 97.2415 76.576H98.8855C98.5735 77.376 98.0695 77.992 97.3735 78.424C96.6855 78.856 95.8975 79.072 95.0095 79.072C94.2255 79.072 93.5095 78.892 92.8615 78.532C92.2135 78.164 91.6975 77.656 91.3135 77.008C90.9375 76.36 90.7495 75.628 90.7495 74.812ZM100.101 75.664C100.101 75 100.237 74.412 100.509 73.9C100.789 73.388 101.165 72.992 101.637 72.712C102.117 72.424 102.645 72.28 103.221 72.28C103.741 72.28 104.193 72.384 104.577 72.592C104.969 72.792 105.281 73.044 105.513 73.348V72.388H106.893V79H105.513V78.016C105.281 78.328 104.965 78.588 104.565 78.796C104.165 79.004 103.709 79.108 103.197 79.108C102.629 79.108 102.109 78.964 101.637 78.676C101.165 78.38 100.789 77.972 100.509 77.452C100.237 76.924 100.101 76.328 100.101 75.664ZM105.513 75.688C105.513 75.232 105.417 74.836 105.225 74.5C105.041 74.164 104.797 73.908 104.493 73.732C104.189 73.556 103.861 73.468 103.509 73.468C103.157 73.468 102.829 73.556 102.525 73.732C102.221 73.9 101.973 74.152 101.781 74.488C101.597 74.816 101.505 75.208 101.505 75.664C101.505 76.12 101.597 76.52 101.781 76.864C101.973 77.208 102.221 77.472 102.525 77.656C102.837 77.832 103.165 77.92 103.509 77.92C103.861 77.92 104.189 77.832 104.493 77.656C104.797 77.48 105.041 77.224 105.225 76.888C105.417 76.544 105.513 76.144 105.513 75.688ZM111.16 79.108C110.64 79.108 110.172 79.016 109.756 78.832C109.348 78.64 109.024 78.384 108.784 78.064C108.544 77.736 108.416 77.372 108.4 76.972H109.816C109.84 77.252 109.972 77.488 110.212 77.68C110.46 77.864 110.768 77.956 111.136 77.956C111.52 77.956 111.816 77.884 112.024 77.74C112.24 77.588 112.348 77.396 112.348 77.164C112.348 76.916 112.228 76.732 111.988 76.612C111.756 76.492 111.384 76.36 110.872 76.216C110.376 76.08 109.972 75.948 109.66 75.82C109.348 75.692 109.076 75.496 108.844 75.232C108.62 74.968 108.508 74.62 108.508 74.188C108.508 73.836 108.612 73.516 108.82 73.228C109.028 72.932 109.324 72.7 109.708 72.532C110.1 72.364 110.548 72.28 111.052 72.28C111.804 72.28 112.408 72.472 112.864 72.856C113.328 73.232 113.576 73.748 113.608 74.404H112.24C112.216 74.108 112.096 73.872 111.88 73.696C111.664 73.52 111.372 73.432 111.004 73.432C110.644 73.432 110.368 73.5 110.176 73.636C109.984 73.772 109.888 73.952 109.888 74.176C109.888 74.352 109.952 74.5 110.08 74.62C110.208 74.74 110.364 74.836 110.548 74.908C110.732 74.972 111.004 75.056 111.364 75.16C111.844 75.288 112.236 75.42 112.54 75.556C112.852 75.684 113.12 75.876 113.344 76.132C113.568 76.388 113.684 76.728 113.692 77.152C113.692 77.528 113.588 77.864 113.38 78.16C113.172 78.456 112.876 78.688 112.492 78.856C112.116 79.024 111.672 79.108 111.16 79.108ZM121.3 75.532C121.3 75.78 121.284 76.004 121.252 76.204H116.2C116.24 76.732 116.436 77.156 116.788 77.476C117.14 77.796 117.572 77.956 118.084 77.956C118.82 77.956 119.34 77.648 119.644 77.032H121.12C120.92 77.64 120.556 78.14 120.028 78.532C119.508 78.916 118.86 79.108 118.084 79.108C117.452 79.108 116.884 78.968 116.38 78.688C115.884 78.4 115.492 78 115.204 77.488C114.924 76.968 114.784 76.368 114.784 75.688C114.784 75.008 114.92 74.412 115.192 73.9C115.472 73.38 115.86 72.98 116.356 72.7C116.86 72.42 117.436 72.28 118.084 72.28C118.708 72.28 119.264 72.416 119.752 72.688C120.24 72.96 120.62 73.344 120.892 73.84C121.164 74.328 121.3 74.892 121.3 75.532ZM119.872 75.1C119.864 74.596 119.684 74.192 119.332 73.888C118.98 73.584 118.544 73.432 118.024 73.432C117.552 73.432 117.148 73.584 116.812 73.888C116.476 74.184 116.276 74.588 116.212 75.1H119.872ZM125.116 79.108C124.596 79.108 124.128 79.016 123.712 78.832C123.304 78.64 122.98 78.384 122.74 78.064C122.5 77.736 122.372 77.372 122.356 76.972H123.772C123.796 77.252 123.928 77.488 124.168 77.68C124.416 77.864 124.724 77.956 125.092 77.956C125.476 77.956 125.772 77.884 125.98 77.74C126.196 77.588 126.304 77.396 126.304 77.164C126.304 76.916 126.184 76.732 125.944 76.612C125.712 76.492 125.34 76.36 124.828 76.216C124.332 76.08 123.928 75.948 123.616 75.82C123.304 75.692 123.032 75.496 122.8 75.232C122.576 74.968 122.464 74.62 122.464 74.188C122.464 73.836 122.568 73.516 122.776 73.228C122.984 72.932 123.28 72.7 123.664 72.532C124.056 72.364 124.504 72.28 125.008 72.28C125.76 72.28 126.364 72.472 126.82 72.856C127.284 73.232 127.532 73.748 127.564 74.404H126.196C126.172 74.108 126.052 73.872 125.836 73.696C125.62 73.52 125.328 73.432 124.96 73.432C124.6 73.432 124.324 73.5 124.132 73.636C123.94 73.772 123.844 73.952 123.844 74.176C123.844 74.352 123.908 74.5 124.036 74.62C124.164 74.74 124.32 74.836 124.504 74.908C124.688 74.972 124.96 75.056 125.32 75.16C125.8 75.288 126.192 75.42 126.496 75.556C126.808 75.684 127.076 75.876 127.3 76.132C127.524 76.388 127.64 76.728 127.648 77.152C127.648 77.528 127.544 77.864 127.336 78.16C127.128 78.456 126.832 78.688 126.448 78.856C126.072 79.024 125.628 79.108 125.116 79.108Z" fill="white"/>
<path fill-rule="evenodd" clip-rule="evenodd" d="M308.5 20C307.95 20 307.5 20.45 307.5 21C307.5 21.55 307.95 22 308.5 22C309.05 22 309.5 21.55 309.5 21C309.5 20.45 309.05 20 308.5 20ZM315.5 20C314.95 20 314.5 20.45 314.5 21C314.5 21.55 314.95 22 315.5 22C316.05 22 316.5 21.55 316.5 21C316.5 20.45 316.05 20 315.5 20ZM311 21C311 20.45 311.45 20 312 20C312.55 20 313 20.45 313 21C313 21.55 312.55 22 312 22C311.45 22 311 21.55 311 21Z" fill="white"/>
<g clip-path="url(#clip1_0_2623)">
<path fill-rule="evenodd" clip-rule="evenodd" d="M195 72C195 69.7909 196.791 68 199 68H254C256.209 68 258 69.7909 258 72V85C258 87.2091 256.209 89 254 89H199C196.791 89 195 87.2091 195 85V72Z" fill="#32333E"/>
<path d="M219.169 49.01V49.59H217.229V56H216.529V49.59H214.579V49.01H219.169ZM222.722 56.08C222.209 56.08 221.746 55.9667 221.332 55.74C220.926 55.5067 220.602 55.18 220.362 54.76C220.129 54.3333 220.012 53.8367 220.012 53.27C220.012 52.7033 220.132 52.21 220.372 51.79C220.612 51.3633 220.939 51.0367 221.352 50.81C221.766 50.5767 222.229 50.46 222.742 50.46C223.256 50.46 223.719 50.5767 224.132 50.81C224.552 51.0367 224.879 51.3633 225.112 51.79C225.352 52.21 225.472 52.7033 225.472 53.27C225.472 53.83 225.352 54.3233 225.112 54.75C224.872 55.1767 224.542 55.5067 224.122 55.74C223.702 55.9667 223.236 56.08 222.722 56.08ZM222.722 55.47C223.082 55.47 223.416 55.39 223.722 55.23C224.029 55.0633 224.276 54.8167 224.462 54.49C224.656 54.1567 224.752 53.75 224.752 53.27C224.752 52.79 224.659 52.3867 224.472 52.06C224.286 51.7267 224.039 51.48 223.732 51.32C223.426 51.1533 223.092 51.07 222.732 51.07C222.372 51.07 222.039 51.1533 221.732 51.32C221.426 51.48 221.179 51.7267 220.992 52.06C220.812 52.3867 220.722 52.79 220.722 53.27C220.722 53.75 220.812 54.1567 220.992 54.49C221.179 54.8167 221.422 55.0633 221.722 55.23C222.029 55.39 222.362 55.47 222.722 55.47ZM227.717 51.13V54.52C227.717 54.8533 227.78 55.0833 227.907 55.21C228.034 55.3367 228.257 55.4 228.577 55.4H229.217V56H228.467C227.974 56 227.607 55.8867 227.367 55.66C227.127 55.4267 227.007 55.0467 227.007 54.52V51.13H226.247V50.54H227.007V49.17H227.717V50.54H229.217V51.13H227.717ZM230.11 53.26C230.11 52.7 230.22 52.21 230.44 51.79C230.666 51.3633 230.976 51.0367 231.37 50.81C231.77 50.5767 232.22 50.46 232.72 50.46C233.24 50.46 233.686 50.58 234.06 50.82C234.44 51.06 234.713 51.3667 234.88 51.74V50.54H235.58V56H234.88V54.79C234.706 55.1633 234.43 55.4733 234.05 55.72C233.676 55.96 233.23 56.08 232.71 56.08C232.216 56.08 231.77 55.9633 231.37 55.73C230.976 55.4967 230.666 55.1667 230.44 54.74C230.22 54.3133 230.11 53.82 230.11 53.26ZM234.88 53.27C234.88 52.83 234.79 52.4433 234.61 52.11C234.43 51.7767 234.183 51.52 233.87 51.34C233.563 51.16 233.223 51.07 232.85 51.07C232.463 51.07 232.116 51.1567 231.81 51.33C231.503 51.5033 231.26 51.7567 231.08 52.09C230.906 52.4167 230.82 52.8067 230.82 53.26C230.82 53.7067 230.906 54.1 231.08 54.44C231.26 54.7733 231.503 55.03 231.81 55.21C232.116 55.3833 232.463 55.47 232.85 55.47C233.223 55.47 233.563 55.38 233.87 55.2C234.183 55.02 234.43 54.7633 234.61 54.43C234.79 54.0967 234.88 53.71 234.88 53.27ZM237.936 48.6V56H237.236V48.6H237.936Z" fill="#9B9EAD"/>
<path d="M205.66 71.6V70.77H207.54V78H206.62V71.6H205.66ZM209.162 74.31C209.162 73.1633 209.348 72.27 209.722 71.63C210.095 70.9833 210.748 70.66 211.682 70.66C212.608 70.66 213.258 70.9833 213.632 71.63C214.005 72.27 214.192 73.1633 214.192 74.31C214.192 75.4767 214.005 76.3833 213.632 77.03C213.258 77.6767 212.608 78 211.682 78C210.748 78 210.095 77.6767 209.722 77.03C209.348 76.3833 209.162 75.4767 209.162 74.31ZM213.292 74.31C213.292 73.73 213.252 73.24 213.172 72.84C213.098 72.4333 212.942 72.1067 212.702 71.86C212.468 71.6133 212.128 71.49 211.682 71.49C211.228 71.49 210.882 71.6133 210.642 71.86C210.408 72.1067 210.252 72.4333 210.172 72.84C210.098 73.24 210.062 73.73 210.062 74.31C210.062 74.91 210.098 75.4133 210.172 75.82C210.252 76.2267 210.408 76.5533 210.642 76.8C210.882 77.0467 211.228 77.17 211.682 77.17C212.128 77.17 212.468 77.0467 212.702 76.8C212.942 76.5533 213.098 76.2267 213.172 75.82C213.252 75.4133 213.292 74.91 213.292 74.31ZM216.589 76.74L215.469 79.43H214.859L215.589 76.74H216.589ZM222.15 71.56H218.64V73.84C218.794 73.6267 219.02 73.4533 219.32 73.32C219.62 73.18 219.944 73.11 220.29 73.11C220.844 73.11 221.294 73.2267 221.64 73.46C221.987 73.6867 222.234 73.9833 222.38 74.35C222.534 74.71 222.61 75.0933 222.61 75.5C222.61 75.98 222.52 76.41 222.34 76.79C222.16 77.17 221.884 77.47 221.51 77.69C221.144 77.91 220.687 78.02 220.14 78.02C219.44 78.02 218.874 77.84 218.44 77.48C218.007 77.12 217.744 76.64 217.65 76.04H218.54C218.627 76.42 218.81 76.7167 219.09 76.93C219.37 77.1433 219.724 77.25 220.15 77.25C220.677 77.25 221.074 77.0933 221.34 76.78C221.607 76.46 221.74 76.04 221.74 75.52C221.74 75 221.607 74.6 221.34 74.32C221.074 74.0333 220.68 73.89 220.16 73.89C219.807 73.89 219.497 73.9767 219.23 74.15C218.97 74.3167 218.78 74.5467 218.66 74.84H217.8V70.76H222.15V71.56ZM223.638 71.6V70.77H225.518V78H224.598V71.6H223.638ZM228.229 76.74L227.109 79.43H226.499L227.229 76.74H228.229ZM233.21 72.49C233.063 71.75 232.607 71.38 231.84 71.38C231.247 71.38 230.803 71.61 230.51 72.07C230.217 72.5233 230.073 73.2733 230.08 74.32C230.233 73.9733 230.487 73.7033 230.84 73.51C231.2 73.31 231.6 73.21 232.04 73.21C232.727 73.21 233.273 73.4233 233.68 73.85C234.093 74.2767 234.3 74.8667 234.3 75.62C234.3 76.0733 234.21 76.48 234.03 76.84C233.857 77.2 233.59 77.4867 233.23 77.7C232.877 77.9133 232.447 78.02 231.94 78.02C231.253 78.02 230.717 77.8667 230.33 77.56C229.943 77.2533 229.673 76.83 229.52 76.29C229.367 75.75 229.29 75.0833 229.29 74.29C229.29 71.8433 230.143 70.62 231.85 70.62C232.503 70.62 233.017 70.7967 233.39 71.15C233.763 71.5033 233.983 71.95 234.05 72.49H233.21ZM231.85 73.98C231.563 73.98 231.293 74.04 231.04 74.16C230.787 74.2733 230.58 74.45 230.42 74.69C230.267 74.9233 230.19 75.21 230.19 75.55C230.19 76.0567 230.337 76.47 230.63 76.79C230.923 77.1033 231.343 77.26 231.89 77.26C232.357 77.26 232.727 77.1167 233 76.83C233.28 76.5367 233.42 76.1433 233.42 75.65C233.42 75.13 233.287 74.7233 233.02 74.43C232.753 74.13 232.363 73.98 231.85 73.98ZM239.616 72.49C239.469 71.75 239.013 71.38 238.246 71.38C237.653 71.38 237.209 71.61 236.916 72.07C236.623 72.5233 236.479 73.2733 236.486 74.32C236.639 73.9733 236.893 73.7033 237.246 73.51C237.606 73.31 238.006 73.21 238.446 73.21C239.133 73.21 239.679 73.4233 240.086 73.85C240.499 74.2767 240.706 74.8667 240.706 75.62C240.706 76.0733 240.616 76.48 240.436 76.84C240.263 77.2 239.996 77.4867 239.636 77.7C239.283 77.9133 238.853 78.02 238.346 78.02C237.659 78.02 237.123 77.8667 236.736 77.56C236.349 77.2533 236.079 76.83 235.926 76.29C235.773 75.75 235.696 75.0833 235.696 74.29C235.696 71.8433 236.549 70.62 238.256 70.62C238.909 70.62 239.423 70.7967 239.796 71.15C240.169 71.5033 240.389 71.95 240.456 72.49H239.616ZM238.256 73.98C237.969 73.98 237.699 74.04 237.446 74.16C237.193 74.2733 236.986 74.45 236.826 74.69C236.673 74.9233 236.596 75.21 236.596 75.55C236.596 76.0567 236.743 76.47 237.036 76.79C237.329 77.1033 237.749 77.26 238.296 77.26C238.763 77.26 239.133 77.1167 239.406 76.83C239.686 76.5367 239.826 76.1433 239.826 75.65C239.826 75.13 239.693 74.7233 239.426 74.43C239.159 74.13 238.769 73.98 238.256 73.98ZM246.022 72.49C245.875 71.75 245.419 71.38 244.652 71.38C244.059 71.38 243.615 71.61 243.322 72.07C243.029 72.5233 242.885 73.2733 242.892 74.32C243.045 73.9733 243.299 73.7033 243.652 73.51C244.012 73.31 244.412 73.21 244.852 73.21C245.539 73.21 246.085 73.4233 246.492 73.85C246.905 74.2767 247.112 74.8667 247.112 75.62C247.112 76.0733 247.022 76.48 246.842 76.84C246.669 77.2 246.402 77.4867 246.042 77.7C245.689 77.9133 245.259 78.02 244.752 78.02C244.065 78.02 243.529 77.8667 243.142 77.56C242.755 77.2533 242.485 76.83 242.332 76.29C242.179 75.75 242.102 75.0833 242.102 74.29C242.102 71.8433 242.955 70.62 244.662 70.62C245.315 70.62 245.829 70.7967 246.202 71.15C246.575 71.5033 246.795 71.95 246.862 72.49H246.022ZM244.662 73.98C244.375 73.98 244.105 74.04 243.852 74.16C243.599 74.2733 243.392 74.45 243.232 74.69C243.079 74.9233 243.002 75.21 243.002 75.55C243.002 76.0567 243.149 76.47 243.442 76.79C243.735 77.1033 244.155 77.26 244.702 77.26C245.169 77.26 245.539 77.1167 245.812 76.83C246.092 76.5367 246.232 76.1433 246.232 75.65C246.232 75.13 246.099 74.7233 245.832 74.43C245.565 74.13 245.175 73.98 244.662 73.98Z" fill="white"/>
</g>
<g clip-path="url(#clip2_0_2623)">
<path fill-rule="evenodd" clip-rule="evenodd" d="M268 72C268 69.7909 269.791 68 272 68H315C317.209 68 319 69.7909 319 72V85C319 87.2091 317.209 89 315 89H272C269.791 89 268 87.2091 268 85V72Z" fill="#FF0000"/>
<path d="M282.995 49.01V49.59H281.055V56H280.355V49.59H278.405V49.01H282.995ZM286.549 56.08C286.035 56.08 285.572 55.9667 285.159 55.74C284.752 55.5067 284.429 55.18 284.189 54.76C283.955 54.3333 283.839 53.8367 283.839 53.27C283.839 52.7033 283.959 52.21 284.199 51.79C284.439 51.3633 284.765 51.0367 285.179 50.81C285.592 50.5767 286.055 50.46 286.569 50.46C287.082 50.46 287.545 50.5767 287.959 50.81C288.379 51.0367 288.705 51.3633 288.939 51.79C289.179 52.21 289.299 52.7033 289.299 53.27C289.299 53.83 289.179 54.3233 288.939 54.75C288.699 55.1767 288.369 55.5067 287.949 55.74C287.529 55.9667 287.062 56.08 286.549 56.08ZM286.549 55.47C286.909 55.47 287.242 55.39 287.549 55.23C287.855 55.0633 288.102 54.8167 288.289 54.49C288.482 54.1567 288.579 53.75 288.579 53.27C288.579 52.79 288.485 52.3867 288.299 52.06C288.112 51.7267 287.865 51.48 287.559 51.32C287.252 51.1533 286.919 51.07 286.559 51.07C286.199 51.07 285.865 51.1533 285.559 51.32C285.252 51.48 285.005 51.7267 284.819 52.06C284.639 52.3867 284.549 52.79 284.549 53.27C284.549 53.75 284.639 54.1567 284.819 54.49C285.005 54.8167 285.249 55.0633 285.549 55.23C285.855 55.39 286.189 55.47 286.549 55.47ZM290.313 53.26C290.313 52.7 290.426 52.21 290.653 51.79C290.88 51.3633 291.19 51.0367 291.583 50.81C291.983 50.5767 292.433 50.46 292.933 50.46C293.413 50.46 293.846 50.5767 294.233 50.81C294.62 51.0433 294.903 51.3467 295.083 51.72V48.6H295.783V56H295.083V54.78C294.916 55.16 294.643 55.4733 294.263 55.72C293.883 55.96 293.436 56.08 292.923 56.08C292.423 56.08 291.973 55.9633 291.573 55.73C291.18 55.4967 290.87 55.1667 290.643 54.74C290.423 54.3133 290.313 53.82 290.313 53.26ZM295.083 53.27C295.083 52.83 294.993 52.4433 294.813 52.11C294.633 51.7767 294.386 51.52 294.073 51.34C293.766 51.16 293.426 51.07 293.053 51.07C292.666 51.07 292.32 51.1567 292.013 51.33C291.706 51.5033 291.463 51.7567 291.283 52.09C291.11 52.4167 291.023 52.8067 291.023 53.26C291.023 53.7067 291.11 54.1 291.283 54.44C291.463 54.7733 291.706 55.03 292.013 55.21C292.32 55.3833 292.666 55.47 293.053 55.47C293.426 55.47 293.766 55.38 294.073 55.2C294.386 55.02 294.633 54.7633 294.813 54.43C294.993 54.0967 295.083 53.71 295.083 53.27ZM297.119 53.26C297.119 52.7 297.229 52.21 297.449 51.79C297.676 51.3633 297.986 51.0367 298.379 50.81C298.779 50.5767 299.229 50.46 299.729 50.46C300.249 50.46 300.696 50.58 301.069 50.82C301.449 51.06 301.723 51.3667 301.889 51.74V50.54H302.589V56H301.889V54.79C301.716 55.1633 301.439 55.4733 301.059 55.72C300.686 55.96 300.239 56.08 299.719 56.08C299.226 56.08 298.779 55.9633 298.379 55.73C297.986 55.4967 297.676 55.1667 297.449 54.74C297.229 54.3133 297.119 53.82 297.119 53.26ZM301.889 53.27C301.889 52.83 301.799 52.4433 301.619 52.11C301.439 51.7767 301.193 51.52 300.879 51.34C300.573 51.16 300.233 51.07 299.859 51.07C299.473 51.07 299.126 51.1567 298.819 51.33C298.513 51.5033 298.269 51.7567 298.089 52.09C297.916 52.4167 297.829 52.8067 297.829 53.26C297.829 53.7067 297.916 54.1 298.089 54.44C298.269 54.7733 298.513 55.03 298.819 55.21C299.126 55.3833 299.473 55.47 299.859 55.47C300.233 55.47 300.573 55.38 300.879 55.2C301.193 55.02 301.439 54.7633 301.619 54.43C301.799 54.0967 301.889 53.71 301.889 53.27ZM308.746 50.54L305.506 58.57H304.776L305.836 55.97L303.596 50.54H304.366L306.226 55.2L308.026 50.54H308.746Z" fill="#9B9EAD"/>
<path d="M283.894 74.73H281.764V76.89H280.914V74.73H278.794V73.96H280.914V71.79H281.764V73.96H283.894V74.73ZM285.189 71.6V70.77H287.069V78H286.149V71.6H285.189ZM289.78 76.74L288.66 79.43H288.05L288.78 76.74H289.78ZM290.731 74.31C290.731 73.1633 290.918 72.27 291.291 71.63C291.665 70.9833 292.318 70.66 293.251 70.66C294.178 70.66 294.828 70.9833 295.201 71.63C295.575 72.27 295.761 73.1633 295.761 74.31C295.761 75.4767 295.575 76.3833 295.201 77.03C294.828 77.6767 294.178 78 293.251 78C292.318 78 291.665 77.6767 291.291 77.03C290.918 76.3833 290.731 75.4767 290.731 74.31ZM294.861 74.31C294.861 73.73 294.821 73.24 294.741 72.84C294.668 72.4333 294.511 72.1067 294.271 71.86C294.038 71.6133 293.698 71.49 293.251 71.49C292.798 71.49 292.451 71.6133 292.211 71.86C291.978 72.1067 291.821 72.4333 291.741 72.84C291.668 73.24 291.631 73.73 291.631 74.31C291.631 74.91 291.668 75.4133 291.741 75.82C291.821 76.2267 291.978 76.5533 292.211 76.8C292.451 77.0467 292.798 77.17 293.251 77.17C293.698 77.17 294.038 77.0467 294.271 76.8C294.511 76.5533 294.668 76.2267 294.741 75.82C294.821 75.4133 294.861 74.91 294.861 74.31ZM296.849 76.39V75.7L300.359 70.84H301.449V75.6H302.449V76.39H301.449V78H300.549V76.39H296.849ZM300.589 71.79L297.899 75.6H300.589V71.79ZM308.026 71.56H304.516V73.84C304.67 73.6267 304.896 73.4533 305.196 73.32C305.496 73.18 305.82 73.11 306.166 73.11C306.72 73.11 307.17 73.2267 307.516 73.46C307.863 73.6867 308.11 73.9833 308.256 74.35C308.41 74.71 308.486 75.0933 308.486 75.5C308.486 75.98 308.396 76.41 308.216 76.79C308.036 77.17 307.76 77.47 307.386 77.69C307.02 77.91 306.563 78.02 306.016 78.02C305.316 78.02 304.75 77.84 304.316 77.48C303.883 77.12 303.62 76.64 303.526 76.04H304.416C304.503 76.42 304.686 76.7167 304.966 76.93C305.246 77.1433 305.6 77.25 306.026 77.25C306.553 77.25 306.95 77.0933 307.216 76.78C307.483 76.46 307.616 76.04 307.616 75.52C307.616 75 307.483 74.6 307.216 74.32C306.95 74.0333 306.556 73.89 306.036 73.89C305.683 73.89 305.373 73.9767 305.106 74.15C304.846 74.3167 304.656 74.5467 304.536 74.84H303.676V70.76H308.026V71.56Z" fill="white"/>
</g>
</g>
<defs>
<linearGradient id="paint0_linear_0_2623" x1="322.243" y1="139.705" x2="322.243" y2="0" gradientUnits="userSpaceOnUse">
<stop stop-color="#232329"/>
<stop offset="1" stop-color="#2F313A"/>
</linearGradient>
<clipPath id="clip0_0_2623">
<rect width="347" height="156" fill="white"/>
</clipPath>
<clipPath id="clip1_0_2623">
<rect width="107" height="48" fill="white" transform="translate(173 41)"/>
</clipPath>
<clipPath id="clip2_0_2623">
<rect width="107" height="48" fill="white" transform="translate(240 41)"/>
</clipPath>
</defs>
</svg>
